<svg xmlns="http://www.w3.org/2000/svg" xmlns:xlink="http://www.w3.org/1999/xlink" xmlns:lucid="lucid" width="1660" height="1580"><g transform="translate(-100 340)" lucid:page-tab-id="0_0"><path d="M1480 495.78c0-3.3 2.7-6 6-6h248c3.3 0 6 2.7 6 6v108c0 3.32-2.7 6-6 6h-248c-3.3 0-6-2.68-6-6z" stroke="#5e5e5e" stroke-width="3" fill="#fff"/><use xlink:href="#a" transform="matrix(1,0,0,1,1492,501.78396868368657) translate(44.080246913580254 53.77777777777778)"/><use xlink:href="#b" transform="matrix(1,0,0,1,1492,501.78396868368657) translate(124.26543209876543 53.77777777777778)"/><path d="M720-97.4c0-3.32 2.7-6 6-6h148c3.3 0 6 2.68 6 6v108c0 3.3-2.7 6-6 6H726c-3.3 0-6-2.7-6-6z" stroke="#5e5e5e" stroke-width="3" fill="#fff"/><use xlink:href="#c" transform="matrix(1,0,0,1,732,-91.40337530811047) translate(-2.864197530864189 25.77777777777778)"/><use xlink:href="#d" transform="matrix(1,0,0,1,732,-91.40337530811047) translate(13.74074074074074 52.44444444444445)"/><use xlink:href="#e" transform="matrix(1,0,0,1,732,-91.40337530811047) translate(37.845679012345684 79.11111111111111)"/><path d="M720 486c0-3.3 2.7-6 6-6h148c3.3 0 6 2.7 6 6v108c0 3.3-2.7 6-6 6H726c-3.3 0-6-2.7-6-6z" stroke="#5e5e5e" stroke-width="3" fill="#fff"/><use xlink:href="#f" transform="matrix(1,0,0,1,732,492) translate(44.60493827160494 26.77777777777778)"/><use xlink:href="#g" transform="matrix(1,0,0,1,732,492) translate(25.469135802469133 53.44444444444445)"/><use xlink:href="#h" transform="matrix(1,0,0,1,732,492) translate(37.845679012345684 80.11111111111111)"/><path d="M720 946c0-3.3 2.7-6 6-6h148c3.3 0 6 2.7 6 6v108c0 3.3-2.7 6-6 6H726c-3.3 0-6-2.7-6-6z" stroke="#5e5e5e" stroke-width="3" fill="#fff"/><use xlink:href="#i" transform="matrix(1,0,0,1,732,952) translate(3.2777777777777857 53.77777777777778)"/><use xlink:href="#e" transform="matrix(1,0,0,1,732,952) translate(72.41358024691358 53.77777777777778)"/><path d="M720 705.57c0-3.32 2.7-6 6-6h148c3.3 0 6 2.68 6 6v108c0 3.3-2.7 6-6 6H726c-3.3 0-6-2.7-6-6z" stroke="#5e5e5e" stroke-width="3" fill="#fff"/><use xlink:href="#j" transform="matrix(1,0,0,1,732,711.5679373673731) translate(13.771604938271608 53.77777777777778)"/><use xlink:href="#k" transform="matrix(1,0,0,1,732,711.5679373673731) translate(82.78395061728395 53.77777777777778)"/><path d="M1200 469.78v160h48v-160zM1392 469.78v160h48v-160z" fill="none"/><path d="M1269.6 509.78H1200m69.6 80H1200zm104.64-40H1440zm-116.4-64l4.8 7.84s13.68 22.4 13.68 56.16-13.68 56.16-13.68 56.16l-4.8 7.84h41.28c5.76 0 18.24 0 32.64-7.68 14.16-7.84 30-23.52 42.48-54.08v-4.48c-24.72-61.12-63.84-61.76-75.12-61.76h-41.28z" stroke="#5e5e5e" stroke-width="3" fill="#fff"/><path d="M1441 549.78h36.5" stroke="#5e5e5e" stroke-width="2" fill="none"/><path d="M1441.03 550.78H1440v-2h1.03M1478.5 550.78h-1.03v-2h1.03" fill="#5e5e5e"/><path d="M882.5 759.57h189.15c3.32 0 6-2.7 6-6V570.63c0-3.3 2.7-6 6-6h171.66" stroke="#5e5e5e" stroke-width="2" fill="none"/><path d="M882.53 760.57h-1.03v-2h1.03" fill="#5e5e5e"/><path d="M1270.57 564.63l-14.26 4.64V560z" stroke="#5e5e5e" stroke-width="2" fill="#5e5e5e"/><path d="M882.5 540h194.67c.4 0 .7-.32.7-.7 0-.4.32-.7.7-.7h177.18" stroke="#5e5e5e" stroke-width="2" fill="none"/><path d="M882.53 541h-1.03v-2h1.03" fill="#5e5e5e"/><path d="M1271.02 538.6l-14.27 4.63v-9.27z" stroke="#5e5e5e" stroke-width="2" fill="#5e5e5e"/><path d="M882.5 1000H1094c3.3 0 6-2.7 6-6V595.78c0-3.3 2.7-6 6-6h75.5" stroke="#5e5e5e" stroke-width="2" fill="none"/><path d="M882.53 1001h-1.03v-2h1.03" fill="#5e5e5e"/><path d="M1196.76 589.78l-14.26 4.64v-9.27z" stroke="#5e5e5e" stroke-width="2" fill="#5e5e5e"/><path d="M882.5-43.4H1094c3.3 0 6 2.68 6 6v541.18c0 3.32 2.7 6 6 6h75.5" stroke="#5e5e5e" stroke-width="2" fill="none"/><path d="M882.53-42.4h-1.03v-2h1.03" fill="#5e5e5e"/><path d="M1196.76 509.78l-14.26 4.64v-9.27z" stroke="#5e5e5e" stroke-width="2" fill="#5e5e5e"/><path d="M460 920v160h48V920zM652 920v160h48V920z" fill="none"/><path d="M529.6 960H460m69.6 80H460zm104.64-40H700zm-116.4-64l4.8 7.84s13.68 22.4 13.68 56.16-13.68 56.16-13.68 56.16l-4.8 7.84h41.28c5.76 0 18.24 0 32.64-7.68 14.16-7.84 30-23.52 42.48-54.08v-4.48C609.52 936.64 570.4 936 559.12 936h-41.28z" stroke="#5e5e5e" stroke-width="3" fill="#fff"/><path d="M701 1000h16.5" stroke="#5e5e5e" stroke-width="2" fill="none"/><path d="M701.03 1001H700v-2h1.03M718.5 1001h-1.03v-2h1.03" fill="#5e5e5e"/><path d="M460 460v160h48V460zM652 460v160h48V460z" fill="none"/><path d="M529.6 500H460m69.6 80H460zm104.64-40H700zm-116.4-64l4.8 7.84s13.68 22.4 13.68 56.16-13.68 56.16-13.68 56.16l-4.8 7.84h41.28c5.76 0 18.24 0 32.64-7.68 14.16-7.84 30-23.52 42.48-54.08v-4.48C609.52 476.64 570.4 476 559.12 476h-41.28z" stroke="#5e5e5e" stroke-width="3" fill="#fff"/><path d="M701 540h16.5" stroke="#5e5e5e" stroke-width="2" fill="none"/><path d="M701.03 541H700v-2h1.03M718.5 541h-1.03v-2h1.03" fill="#5e5e5e"/><path d="M460-123.4v160h48v-160zM652-123.4v160h48v-160z" fill="none"/><path d="M529.6-83.4H460m69.6 80H460zm104.64-40H700zm-116.4-64l4.8 7.84s13.68 22.4 13.68 56.16-13.68 56.16-13.68 56.16l-4.8 7.84h41.28c5.76 0 18.24 0 32.64-7.68 14.16-7.84 30-23.52 42.48-54.08v-4.48c-24.72-61.12-63.84-61.76-75.12-61.76h-41.28z" stroke="#5e5e5e" stroke-width="3" fill="#fff"/><path d="M701-43.4h16.5" stroke="#5e5e5e" stroke-width="2" fill="none"/><path d="M701.03-42.4H700v-2h1.03M718.5-42.4h-1.03v-2h1.03" fill="#5e5e5e"/><path d="M282.5 1180H414c3.3 0 6-2.7 6-6v-128c0-3.3 2.7-6 6-6h15.5" stroke="#5e5e5e" stroke-width="2" fill="none"/><path d="M282.53 1181h-1.1l.07-.98-.03-1.02h1.06" fill="#5e5e5e"/><path d="M456.76 1040l-14.26 4.64v-9.28z" stroke="#5e5e5e" stroke-width="2" fill="#5e5e5e"/><path d="M282.5 1060h118.8c3.32 0 6-2.7 6-6v-28c0-3.3 2.7-6 6-6h101.32" stroke="#5e5e5e" stroke-width="2" fill="none"/><path d="M282.53 1061h-1.1l.07-.98-.03-1.02h1.06" fill="#5e5e5e"/><path d="M529.88 1020l-14.26 4.64v-9.28z" stroke="#5e5e5e" stroke-width="2" fill="#5e5e5e"/><path d="M282.5 940h119.24c3.3 0 6 2.7 6 6v34.02c0 3.32 2.68 6 6 6h101.73" stroke="#5e5e5e" stroke-width="2" fill="none"/><path d="M282.53 941h-1.1l.07-.98-.03-1.02h1.06" fill="#5e5e5e"/><path d="M530.74 986.02l-14.27 4.64v-9.27z" stroke="#5e5e5e" stroke-width="2" fill="#5e5e5e"/><path d="M282.5 820H414c3.3 0 6 2.7 6 6v128c0 3.3 2.7 6 6 6h15.5" stroke="#5e5e5e" stroke-width="2" fill="none"/><path d="M282.53 821h-1.1l.07-.98-.03-1.02h1.06" fill="#5e5e5e"/><path d="M456.76 960l-14.26 4.64v-9.28z" stroke="#5e5e5e" stroke-width="2" fill="#5e5e5e"/><path d="M282.5 659.57h82.25c3.3 0 6-2.7 6-6V586c0-3.3 2.7-6 6-6h64.75" stroke="#5e5e5e" stroke-width="2" fill="none"/><path d="M282.53 660.57h-1.1l.07-.98-.03-1.03h1.06" fill="#5e5e5e"/><path d="M456.76 580l-14.26 4.64v-9.28z" stroke="#5e5e5e" stroke-width="2" fill="#5e5e5e"/><path d="M282.5 549.78h233.38" stroke="#5e5e5e" stroke-width="2" fill="none"/><path d="M282.53 550.78h-1.1l.07-.98-.03-1.02h1.06" fill="#5e5e5e"/><path d="M531.15 549.78l-14.27 4.64v-9.27z" stroke="#5e5e5e" stroke-width="2" fill="#5e5e5e"/><path d="M282.5 440h82.25c3.3 0 6 2.7 6 6v48c0 3.3 2.7 6 6 6h64.75" stroke="#5e5e5e" stroke-width="2" fill="none"/><path d="M282.53 441h-1.1l.07-.98-.03-1.02h1.06" fill="#5e5e5e"/><path d="M456.76 500l-14.26 4.64v-9.28z" stroke="#5e5e5e" stroke-width="2" fill="#5e5e5e"/><path d="M282.5 180H424c3.3 0 6-2.7 6-6V2.6c0-3.32 2.7-6 6-6h5.5" stroke="#5e5e5e" stroke-width="2" fill="none"/><path d="M282.53 181h-1.1l.07-.98-.03-1.02h1.06" fill="#5e5e5e"/><path d="M456.76-3.4L442.5 1.23v-9.27z" stroke="#5e5e5e" stroke-width="2" fill="#5e5e5e"/><path d="M282.5 65h118.7c3.3 0 6-2.7 6-6v-74.8c0-3.3 2.7-6 6-6h101.2" stroke="#5e5e5e" stroke-width="2" fill="none"/><path d="M282.53 66h-1.1l.07-.98-.03-1.02h1.06" fill="#5e5e5e"/><path d="M529.67-21.8l-14.27 4.64v-9.27z" stroke="#5e5e5e" stroke-width="2" fill="#5e5e5e"/><path d="M282.5-55h233.22" stroke="#5e5e5e" stroke-width="2" fill="none"/><path d="M282.53-54h-1.08l.05-.96V-56h1.03" fill="#5e5e5e"/><path d="M531-55l-14.28 4.64v-9.28z" stroke="#5e5e5e" stroke-width="2" fill="#5e5e5e"/><path d="M282.5-175H424c3.3 0 6 2.7 6 6v81.1c0 3.3 2.7 6 6 6h8.5" stroke="#5e5e5e" stroke-width="2" fill="none"/><path d="M282.53-174h-1.1l.07-.98-.03-1.02h1.06" fill="#5e5e5e"/><path d="M459.76-81.9l-14.26 4.63v-9.27z" stroke="#5e5e5e" stroke-width="2" fill="#5e5e5e"/><path d="M282.5-280H454c3.3 0 6 2.7 6 6v159.1c0 3.3 2.7 6 6 6h31.23" stroke="#5e5e5e" stroke-width="2" fill="none"/><path d="M282.53-279h-1.1l.07-.98-.03-1.02h1.06" fill="#5e5e5e"/><path d="M512.5-108.9l-14.27 4.63v-9.27z" stroke="#5e5e5e" stroke-width="2" fill="#5e5e5e"/><path d="M248-320c17.67 0 32 17.9 32 40s-14.33 40-32 40h-96c-17.67 0-32-17.9-32-40s14.33-40 32-40z" stroke="#5e5e5e" stroke-width="3" fill="#fff"/><use xlink:href="#l" transform="matrix(1,0,0,1,125,-315) translate(22.654320987654323 39.65277777777778)"/><use xlink:href="#e" transform="matrix(1,0,0,1,125,-315) translate(67.03703703703704 39.65277777777778)"/><path d="M248-215c17.67 0 32 17.9 32 40s-14.33 40-32 40h-96c-17.67 0-32-17.9-32-40s14.33-40 32-40z" stroke="#5e5e5e" stroke-width="3" fill="#fff"/><use xlink:href="#m" transform="matrix(1,0,0,1,125,-210) translate(17.13462962962962 26.52777777777778)"/><use xlink:href="#n" transform="matrix(1,0,0,1,125,-210) translate(6.609938271604941 53.19444444444445)"/><use xlink:href="#e" transform="matrix(1,0,0,1,125,-210) translate(83.09141975308641 53.19444444444445)"/><path d="M248-100c17.67 0 32 20.15 32 45s-14.33 45-32 45h-96c-17.67 0-32-20.15-32-45s14.33-45 32-45z" stroke="#5e5e5e" stroke-width="3" fill="#fff"/><use xlink:href="#o" transform="matrix(1,0,0,1,125,-95) translate(31.265432098765437 17.77777777777778)"/><use xlink:href="#p" transform="matrix(1,0,0,1,125,-95) translate(112.56172839506172 17.77777777777778)"/><use xlink:href="#q" transform="matrix(1,0,0,1,125,-95) translate(6.6049382716049365 44.44444444444444)"/><use xlink:href="#n" transform="matrix(1,0,0,1,125,-95) translate(6.604938271604951 71.11111111111111)"/><use xlink:href="#e" transform="matrix(1,0,0,1,125,-95) translate(83.08641975308642 71.11111111111111)"/><path d="M248 25c17.67 0 32 17.9 32 40s-14.33 40-32 40h-96c-17.67 0-32-17.9-32-40s14.33-40 32-40z" stroke="#5e5e5e" stroke-width="3" fill="#fff"/><use xlink:href="#r" transform="matrix(1,0,0,1,125,30) translate(36.795123456790115 26.52777777777778)"/><use xlink:href="#n" transform="matrix(1,0,0,1,125,30) translate(6.609938271604941 53.19444444444445)"/><use xlink:href="#e" transform="matrix(1,0,0,1,125,30) translate(83.09141975308641 53.19444444444445)"/><path d="M248 140c17.67 0 32 17.9 32 40s-14.33 40-32 40h-96c-17.67 0-32-17.9-32-40s14.33-40 32-40z" stroke="#5e5e5e" stroke-width="3" fill="#fff"/><use xlink:href="#s" transform="matrix(1,0,0,1,125,145.00000000000006) translate(20.18518518518519 39.65277777777778)"/><use xlink:href="#e" transform="matrix(1,0,0,1,125,145.00000000000006) translate(69.50617283950618 39.65277777777778)"/><path d="M248 400c17.67 0 32 17.9 32 40s-14.33 40-32 40h-96c-17.67 0-32-17.9-32-40s14.33-40 32-40z" stroke="#5e5e5e" stroke-width="3" fill="#fff"/><use xlink:href="#t" transform="matrix(1,0,0,1,125,405) translate(16.543209876543216 39.65277777777778)"/><use xlink:href="#e" transform="matrix(1,0,0,1,125,405) translate(73.14814814814815 39.65277777777778)"/><path d="M248 509.78c17.67 0 32 17.9 32 40s-14.33 40-32 40h-96c-17.67 0-32-17.9-32-40s14.33-40 32-40z" stroke="#5e5e5e" stroke-width="3" fill="#fff"/><g><use xlink:href="#u" transform="matrix(1,0,0,1,125,514.7839686836866) translate(5.961790123456803 26.52777777777778)"/><use xlink:href="#v" transform="matrix(1,0,0,1,125,514.7839686836866) translate(10.34450617283951 53.19444444444445)"/><use xlink:href="#e" transform="matrix(1,0,0,1,125,514.7839686836866) translate(79.35685185185186 53.19444444444445)"/></g><path d="M248 619.57c17.67 0 32 17.9 32 40s-14.33 40-32 40h-96c-17.67 0-32-17.9-32-40s14.33-40 32-40z" stroke="#5e5e5e" stroke-width="3" fill="#fff"/><g><use xlink:href="#w" transform="matrix(1,0,0,1,125,624.5679373673731) translate(5.432098765432102 39.65277777777778)"/><use xlink:href="#e" transform="matrix(1,0,0,1,125,624.5679373673731) translate(84.25925925925925 39.65277777777778)"/></g><path d="M248 780c17.67 0 32 17.9 32 40s-14.33 40-32 40h-96c-17.67 0-32-17.9-32-40s14.33-40 32-40z" stroke="#5e5e5e" stroke-width="3" fill="#fff"/><g><use xlink:href="#l" transform="matrix(1,0,0,1,125,785) translate(22.654320987654323 39.65277777777778)"/><use xlink:href="#e" transform="matrix(1,0,0,1,125,785) translate(67.03703703703704 39.65277777777778)"/></g><path d="M248 900c17.67 0 32 17.9 32 40s-14.33 40-32 40h-96c-17.67 0-32-17.9-32-40s14.33-40 32-40z" stroke="#5e5e5e" stroke-width="3" fill="#fff"/><g><use xlink:href="#r" transform="matrix(1,0,0,1,125,905) translate(36.795123456790115 24.34027777777778)"/><use xlink:href="#x" transform="matrix(1,0,0,1,125,905) translate(2.319814814814828 51.00694444444445)"/><use xlink:href="#e" transform="matrix(1,0,0,1,125,905) translate(87.38154320987654 51.00694444444445)"/></g><path d="M248 1020c17.67 0 32 17.9 32 40s-14.33 40-32 40h-96c-17.67 0-32-17.9-32-40s14.33-40 32-40z" stroke="#5e5e5e" stroke-width="3" fill="#fff"/><g><use xlink:href="#y" transform="matrix(1,0,0,1,125,1025) translate(2.65432098765433 39.65277777777778)"/><use xlink:href="#z" transform="matrix(1,0,0,1,125,1025) translate(67.1604938271605 39.65277777777778)"/></g><path d="M248 1140c17.67 0 32 17.9 32 40s-14.33 40-32 40h-96c-17.67 0-32-17.9-32-40s14.33-40 32-40z" stroke="#5e5e5e" stroke-width="3" fill="#fff"/><g><use xlink:href="#A" transform="matrix(1,0,0,1,125,1145) translate(33.70870370370369 26.52777777777778)"/><use xlink:href="#z" transform="matrix(1,0,0,1,125,1145) translate(34.9124074074074 53.19444444444445)"/></g><path d="M248 255c17.67 0 32 17.9 32 40s-14.33 40-32 40h-96c-17.67 0-32-17.9-32-40s14.33-40 32-40z" stroke="#5e5e5e" stroke-width="3" fill="#fff"/><g><use xlink:href="#B" transform="matrix(1,0,0,1,125,260) translate(6.604938271604951 39.65277777777778)"/><use xlink:href="#e" transform="matrix(1,0,0,1,125,260) translate(83.08641975308642 39.65277777777778)"/></g><path d="M282.5 295H454c3.3 0 6-2.7 6-6V28.1c0-3.32 2.7-6 6-6h30.66" stroke="#5e5e5e" stroke-width="2" fill="none"/><path d="M282.53 296h-1.1l.07-.98-.03-1.02h1.06" fill="#5e5e5e"/><path d="M511.93 22.1l-14.27 4.63v-9.27z" stroke="#5e5e5e" stroke-width="2" fill="#5e5e5e"/><defs><path fill="#333" d="M185-189c-5-48-123-54-124 2 14 75 158 14 163 119 3 78-121 87-175 55-17-10-28-26-33-46l33-7c5 56 141 63 141-1 0-78-155-14-162-118-5-82 145-84 179-34 5 7 8 16 11 25" id="C"/><path fill="#333" d="M179-190L93 31C79 59 56 82 12 73V49c39 6 53-20 64-50L1-190h34L92-34l54-156h33" id="D"/><path fill="#333" d="M135-143c-3-34-86-38-87 0 15 53 115 12 119 90S17 21 10-45l28-5c4 36 97 45 98 0-10-56-113-15-118-90-4-57 82-63 122-42 12 7 21 19 24 35" id="E"/><path fill="#333" d="M59-47c-2 24 18 29 38 22v24C64 9 27 4 27-40v-127H5v-23h24l9-43h21v43h35v23H59v120" id="F"/><path fill="#333" d="M100-194c63 0 86 42 84 106H49c0 40 14 67 53 68 26 1 43-12 49-29l28 8c-11 28-37 45-77 45C44 4 14-33 15-96c1-61 26-98 85-98zm52 81c6-60-76-77-97-28-3 7-6 17-6 28h103" id="G"/><path fill="#333" d="M210-169c-67 3-38 105-44 169h-31v-121c0-29-5-50-35-48C34-165 62-65 56 0H25l-1-190h30c1 10-1 24 2 32 10-44 99-50 107 0 11-21 27-35 58-36 85-2 47 119 55 194h-31v-121c0-29-5-49-35-48" id="H"/><g id="a"><use transform="matrix(0.06172839506172839,0,0,0.06172839506172839,0,0)" xlink:href="#C"/><use transform="matrix(0.06172839506172839,0,0,0.06172839506172839,14.814814814814813,0)" xlink:href="#D"/><use transform="matrix(0.06172839506172839,0,0,0.06172839506172839,25.925925925925924,0)" xlink:href="#E"/><use transform="matrix(0.06172839506172839,0,0,0.06172839506172839,37.03703703703704,0)" xlink:href="#F"/><use transform="matrix(0.06172839506172839,0,0,0.06172839506172839,43.20987654320988,0)" xlink:href="#G"/><use transform="matrix(0.06172839506172839,0,0,0.06172839506172839,55.55555555555556,0)" xlink:href="#H"/></g><path fill="#333" d="M63-220v92h138v28H63V0H30v-248h175v28H63" id="I"/><path fill="#333" d="M141-36C126-15 110 5 73 4 37 3 15-17 15-53c-1-64 63-63 125-63 3-35-9-54-41-54-24 1-41 7-42 31l-33-3c5-37 33-52 76-52 45 0 72 20 72 64v82c-1 20 7 32 28 27v20c-31 9-61-2-59-35zM48-53c0 20 12 33 32 33 41-3 63-29 60-74-43 2-92-5-92 41" id="J"/><path fill="#333" d="M24-231v-30h32v30H24zM24 0v-190h32V0H24" id="K"/><path fill="#333" d="M24 0v-261h32V0H24" id="L"/><path fill="#333" d="M84 4C-5 8 30-112 23-190h32v120c0 31 7 50 39 49 72-2 45-101 50-169h31l1 190h-30c-1-10 1-25-2-33-11 22-28 36-60 37" id="M"/><path fill="#333" d="M114-163C36-179 61-72 57 0H25l-1-190h30c1 12-1 29 2 39 6-27 23-49 58-41v29" id="N"/><g id="b"><use transform="matrix(0.06172839506172839,0,0,0.06172839506172839,0,0)" xlink:href="#I"/><use transform="matrix(0.06172839506172839,0,0,0.06172839506172839,13.518518518518517,0)" xlink:href="#J"/><use transform="matrix(0.06172839506172839,0,0,0.06172839506172839,25.864197530864196,0)" xlink:href="#K"/><use transform="matrix(0.06172839506172839,0,0,0.06172839506172839,30.74074074074074,0)" xlink:href="#L"/><use transform="matrix(0.06172839506172839,0,0,0.06172839506172839,35.617283950617285,0)" xlink:href="#M"/><use transform="matrix(0.06172839506172839,0,0,0.06172839506172839,47.96296296296296,0)" xlink:href="#N"/><use transform="matrix(0.06172839506172839,0,0,0.06172839506172839,55.30864197530864,0)" xlink:href="#G"/></g><path fill="#333" d="M30 0v-248h187v28H63v79h144v27H63v87h162V0H30" id="O"/><path fill="#333" d="M117-194c89-4 53 116 60 194h-32v-121c0-31-8-49-39-48C34-167 62-67 57 0H25l-1-190h30c1 10-1 24 2 32 11-22 29-35 61-36" id="P"/><path fill="#333" d="M108 0H70L1-190h34L89-25l56-165h34" id="Q"/><path fill="#333" d="M100-194c62-1 85 37 85 99 1 63-27 99-86 99S16-35 15-95c0-66 28-99 85-99zM99-20c44 1 53-31 53-75 0-43-8-75-51-75s-53 32-53 75 10 74 51 75" id="R"/><g id="c"><use transform="matrix(0.06172839506172839,0,0,0.06172839506172839,0,0)" xlink:href="#O"/><use transform="matrix(0.06172839506172839,0,0,0.06172839506172839,14.814814814814813,0)" xlink:href="#P"/><use transform="matrix(0.06172839506172839,0,0,0.06172839506172839,27.160493827160494,0)" xlink:href="#Q"/><use transform="matrix(0.06172839506172839,0,0,0.06172839506172839,38.27160493827161,0)" xlink:href="#K"/><use transform="matrix(0.06172839506172839,0,0,0.06172839506172839,43.14814814814815,0)" xlink:href="#N"/><use transform="matrix(0.06172839506172839,0,0,0.06172839506172839,50.49382716049383,0)" xlink:href="#R"/><use transform="matrix(0.06172839506172839,0,0,0.06172839506172839,62.839506172839506,0)" xlink:href="#P"/><use transform="matrix(0.06172839506172839,0,0,0.06172839506172839,75.18518518518519,0)" xlink:href="#H"/><use transform="matrix(0.06172839506172839,0,0,0.06172839506172839,93.64197530864197,0)" xlink:href="#G"/><use transform="matrix(0.06172839506172839,0,0,0.06172839506172839,105.98765432098766,0)" xlink:href="#P"/><use transform="matrix(0.06172839506172839,0,0,0.06172839506172839,118.33333333333334,0)" xlink:href="#F"/><use transform="matrix(0.06172839506172839,0,0,0.06172839506172839,124.50617283950618,0)" xlink:href="#J"/><use transform="matrix(0.06172839506172839,0,0,0.06172839506172839,136.85185185185185,0)" xlink:href="#L"/></g><path fill="#333" d="M85-194c31 0 48 13 60 33l-1-100h32l1 261h-30c-2-10 0-23-3-31C134-8 116 4 85 4 32 4 16-35 15-94c0-66 23-100 70-100zm9 24c-40 0-46 34-46 75 0 40 6 74 45 74 42 0 51-32 51-76 0-42-9-74-50-73" id="S"/><path fill="#333" d="M24-231v-30h32v30H24zM-9 49c24 4 33-6 33-30v-209h32V24c2 40-23 58-65 49V49" id="T"/><g id="d"><use transform="matrix(0.06172839506172839,0,0,0.06172839506172839,0,0)" xlink:href="#J"/><use transform="matrix(0.06172839506172839,0,0,0.06172839506172839,12.345679012345679,0)" xlink:href="#S"/><use transform="matrix(0.06172839506172839,0,0,0.06172839506172839,24.691358024691358,0)" xlink:href="#T"/><use transform="matrix(0.06172839506172839,0,0,0.06172839506172839,29.5679012345679,0)" xlink:href="#M"/><use transform="matrix(0.06172839506172839,0,0,0.06172839506172839,41.913580246913575,0)" xlink:href="#E"/><use transform="matrix(0.06172839506172839,0,0,0.06172839506172839,53.02469135802468,0)" xlink:href="#F"/><use transform="matrix(0.06172839506172839,0,0,0.06172839506172839,59.197530864197525,0)" xlink:href="#H"/><use transform="matrix(0.06172839506172839,0,0,0.06172839506172839,77.65432098765432,0)" xlink:href="#G"/><use transform="matrix(0.06172839506172839,0,0,0.06172839506172839,90,0)" xlink:href="#P"/><use transform="matrix(0.06172839506172839,0,0,0.06172839506172839,102.34567901234568,0)" xlink:href="#F"/></g><path fill="#333" d="M101-234c-31-9-42 10-38 44h38v23H63V0H32v-167H5v-23h27c-7-52 17-82 69-68v24" id="U"/><g id="e"><use transform="matrix(0.06172839506172839,0,0,0.06172839506172839,0,0)" xlink:href="#U"/><use transform="matrix(0.06172839506172839,0,0,0.06172839506172839,6.172839506172839,0)" xlink:href="#J"/><use transform="matrix(0.06172839506172839,0,0,0.06172839506172839,18.51851851851852,0)" xlink:href="#K"/><use transform="matrix(0.06172839506172839,0,0,0.06172839506172839,23.395061728395063,0)" xlink:href="#L"/><use transform="matrix(0.06172839506172839,0,0,0.06172839506172839,28.271604938271608,0)" xlink:href="#M"/><use transform="matrix(0.06172839506172839,0,0,0.06172839506172839,40.617283950617285,0)" xlink:href="#N"/><use transform="matrix(0.06172839506172839,0,0,0.06172839506172839,47.96296296296296,0)" xlink:href="#G"/></g><path fill="#333" d="M232-93c-1 65-40 97-104 97C67 4 28-28 28-90v-158h33c8 89-33 224 67 224 102 0 64-133 71-224h33v155" id="V"/><g id="f"><use transform="matrix(0.06172839506172839,0,0,0.06172839506172839,0,0)" xlink:href="#V"/><use transform="matrix(0.06172839506172839,0,0,0.06172839506172839,15.987654320987653,0)" xlink:href="#E"/><use transform="matrix(0.06172839506172839,0,0,0.06172839506172839,27.098765432098766,0)" xlink:href="#G"/><use transform="matrix(0.06172839506172839,0,0,0.06172839506172839,39.44444444444444,0)" xlink:href="#N"/></g><path fill="#333" d="M96-169c-40 0-48 33-48 73s9 75 48 75c24 0 41-14 43-38l32 2c-6 37-31 61-74 61-59 0-76-41-82-99-10-93 101-131 147-64 4 7 5 14 7 22l-32 3c-4-21-16-35-41-35" id="W"/><g id="g"><use transform="matrix(0.06172839506172839,0,0,0.06172839506172839,0,0)" xlink:href="#K"/><use transform="matrix(0.06172839506172839,0,0,0.06172839506172839,4.876543209876543,0)" xlink:href="#P"/><use transform="matrix(0.06172839506172839,0,0,0.06172839506172839,17.22222222222222,0)" xlink:href="#F"/><use transform="matrix(0.06172839506172839,0,0,0.06172839506172839,23.39506172839506,0)" xlink:href="#G"/><use transform="matrix(0.06172839506172839,0,0,0.06172839506172839,35.74074074074074,0)" xlink:href="#N"/><use transform="matrix(0.06172839506172839,0,0,0.06172839506172839,43.08641975308642,0)" xlink:href="#U"/><use transform="matrix(0.06172839506172839,0,0,0.06172839506172839,49.25925925925926,0)" xlink:href="#J"/><use transform="matrix(0.06172839506172839,0,0,0.06172839506172839,61.60493827160494,0)" xlink:href="#W"/><use transform="matrix(0.06172839506172839,0,0,0.06172839506172839,72.71604938271605,0)" xlink:href="#G"/></g><g id="h"><use transform="matrix(0.06172839506172839,0,0,0.06172839506172839,0,0)" xlink:href="#U"/><use transform="matrix(0.06172839506172839,0,0,0.06172839506172839,6.172839506172839,0)" xlink:href="#J"/><use transform="matrix(0.06172839506172839,0,0,0.06172839506172839,18.51851851851852,0)" xlink:href="#K"/><use transform="matrix(0.06172839506172839,0,0,0.06172839506172839,23.395061728395063,0)" xlink:href="#L"/><use transform="matrix(0.06172839506172839,0,0,0.06172839506172839,28.271604938271608,0)" xlink:href="#M"/><use transform="matrix(0.06172839506172839,0,0,0.06172839506172839,40.617283950617285,0)" xlink:href="#N"/><use transform="matrix(0.06172839506172839,0,0,0.06172839506172839,47.96296296296296,0)" xlink:href="#G"/></g><g id="i"><use transform="matrix(0.06172839506172839,0,0,0.06172839506172839,0,0)" xlink:href="#C"/><use transform="matrix(0.06172839506172839,0,0,0.06172839506172839,14.814814814814813,0)" xlink:href="#J"/><use transform="matrix(0.06172839506172839,0,0,0.06172839506172839,27.160493827160494,0)" xlink:href="#U"/><use transform="matrix(0.06172839506172839,0,0,0.06172839506172839,33.333333333333336,0)" xlink:href="#G"/><use transform="matrix(0.06172839506172839,0,0,0.06172839506172839,45.67901234567901,0)" xlink:href="#F"/><use transform="matrix(0.06172839506172839,0,0,0.06172839506172839,51.851851851851855,0)" xlink:href="#D"/></g><path fill="#333" d="M30-248c87 1 191-15 191 75 0 78-77 80-158 76V0H30v-248zm33 125c57 0 124 11 124-50 0-59-68-47-124-48v98" id="X"/><path fill="#333" d="M206 0h-36l-40-164L89 0H53L-1-190h32L70-26l43-164h34l41 164 42-164h31" id="Y"/><g id="j"><use transform="matrix(0.06172839506172839,0,0,0.06172839506172839,0,0)" xlink:href="#X"/><use transform="matrix(0.06172839506172839,0,0,0.06172839506172839,14.814814814814813,0)" xlink:href="#R"/><use transform="matrix(0.06172839506172839,0,0,0.06172839506172839,27.160493827160494,0)" xlink:href="#Y"/><use transform="matrix(0.06172839506172839,0,0,0.06172839506172839,43.148148148148145,0)" xlink:href="#G"/><use transform="matrix(0.06172839506172839,0,0,0.06172839506172839,55.49382716049382,0)" xlink:href="#N"/></g><g id="k"><use transform="matrix(0.06172839506172839,0,0,0.06172839506172839,0,0)" xlink:href="#L"/><use transform="matrix(0.06172839506172839,0,0,0.06172839506172839,4.876543209876543,0)" xlink:href="#R"/><use transform="matrix(0.06172839506172839,0,0,0.06172839506172839,17.22222222222222,0)" xlink:href="#E"/><use transform="matrix(0.06172839506172839,0,0,0.06172839506172839,28.333333333333332,0)" xlink:href="#E"/></g><g id="l"><use transform="matrix(0.06172839506172839,0,0,0.06172839506172839,0,0)" xlink:href="#I"/><use transform="matrix(0.06172839506172839,0,0,0.06172839506172839,13.518518518518517,0)" xlink:href="#J"/><use transform="matrix(0.06172839506172839,0,0,0.06172839506172839,25.864197530864196,0)" xlink:href="#P"/></g><path fill="#333" d="M197 0v-115H63V0H30v-248h33v105h134v-105h34V0h-34" id="Z"/><path fill="#333" d="M177-190C167-65 218 103 67 71c-23-6-38-20-44-43l32-5c15 47 100 32 89-28v-30C133-14 115 1 83 1 29 1 15-40 15-95c0-56 16-97 71-98 29-1 48 16 59 35 1-10 0-23 2-32h30zM94-22c36 0 50-32 50-73 0-42-14-75-50-75-39 0-46 34-46 75s6 73 46 73" id="aa"/><g id="m"><use transform="matrix(0.06172839506172839,0,0,0.06172839506172839,0,0)" xlink:href="#Z"/><use transform="matrix(0.06172839506172839,0,0,0.06172839506172839,15.987654320987653,0)" xlink:href="#M"/><use transform="matrix(0.06172839506172839,0,0,0.06172839506172839,28.333333333333332,0)" xlink:href="#H"/><use transform="matrix(0.06172839506172839,0,0,0.06172839506172839,46.79012345679012,0)" xlink:href="#K"/><use transform="matrix(0.06172839506172839,0,0,0.06172839506172839,51.666666666666664,0)" xlink:href="#S"/><use transform="matrix(0.06172839506172839,0,0,0.06172839506172839,64.01234567901234,0)" xlink:href="#K"/><use transform="matrix(0.06172839506172839,0,0,0.06172839506172839,68.88888888888889,0)" xlink:href="#U"/><use transform="matrix(0.06172839506172839,0,0,0.06172839506172839,75.06172839506172,0)" xlink:href="#D"/><use transform="matrix(0.06172839506172839,0,0,0.06172839506172839,86.17283950617283,0)" xlink:href="#K"/><use transform="matrix(0.06172839506172839,0,0,0.06172839506172839,91.04938271604938,0)" xlink:href="#P"/><use transform="matrix(0.06172839506172839,0,0,0.06172839506172839,103.39506172839506,0)" xlink:href="#aa"/></g><g id="n"><use transform="matrix(0.06172839506172839,0,0,0.06172839506172839,0,0)" xlink:href="#E"/><use transform="matrix(0.06172839506172839,0,0,0.06172839506172839,11.11111111111111,0)" xlink:href="#D"/><use transform="matrix(0.06172839506172839,0,0,0.06172839506172839,22.22222222222222,0)" xlink:href="#E"/><use transform="matrix(0.06172839506172839,0,0,0.06172839506172839,33.33333333333333,0)" xlink:href="#F"/><use transform="matrix(0.06172839506172839,0,0,0.06172839506172839,39.50617283950617,0)" xlink:href="#G"/><use transform="matrix(0.06172839506172839,0,0,0.06172839506172839,51.85185185185185,0)" xlink:href="#H"/></g><path fill="#333" d="M212-179c-10-28-35-45-73-45-59 0-87 40-87 99 0 60 29 101 89 101 43 0 62-24 78-52l27 14C228-24 195 4 139 4 59 4 22-46 18-125c-6-104 99-153 187-111 19 9 31 26 39 46" id="ab"/><g id="o"><use transform="matrix(0.06172839506172839,0,0,0.06172839506172839,0,0)" xlink:href="#ab"/><use transform="matrix(0.06172839506172839,0,0,0.06172839506172839,15.987654320987653,0)" xlink:href="#R"/><use transform="matrix(0.06172839506172839,0,0,0.06172839506172839,28.333333333333332,0)" xlink:href="#R"/><use transform="matrix(0.06172839506172839,0,0,0.06172839506172839,40.67901234567901,0)" xlink:href="#L"/><use transform="matrix(0.06172839506172839,0,0,0.06172839506172839,45.55555555555556,0)" xlink:href="#K"/><use transform="matrix(0.06172839506172839,0,0,0.06172839506172839,50.4320987654321,0)" xlink:href="#P"/><use transform="matrix(0.06172839506172839,0,0,0.06172839506172839,62.77777777777778,0)" xlink:href="#aa"/></g><path fill="#333" d="M0 4l72-265h28L28 4H0" id="ac"/><use transform="matrix(0.06172839506172839,0,0,0.06172839506172839,0,0)" xlink:href="#ac" id="p"/><path fill="#333" d="M106-169C34-169 62-67 57 0H25v-261h32l-1 103c12-21 28-36 61-36 89 0 53 116 60 194h-32v-121c2-32-8-49-39-48" id="ad"/><g id="q"><use transform="matrix(0.06172839506172839,0,0,0.06172839506172839,0,0)" xlink:href="#S"/><use transform="matrix(0.06172839506172839,0,0,0.06172839506172839,12.345679012345679,0)" xlink:href="#G"/><use transform="matrix(0.06172839506172839,0,0,0.06172839506172839,24.691358024691358,0)" xlink:href="#ad"/><use transform="matrix(0.06172839506172839,0,0,0.06172839506172839,37.03703703703704,0)" xlink:href="#M"/><use transform="matrix(0.06172839506172839,0,0,0.06172839506172839,49.382716049382715,0)" xlink:href="#H"/><use transform="matrix(0.06172839506172839,0,0,0.06172839506172839,67.8395061728395,0)" xlink:href="#K"/><use transform="matrix(0.06172839506172839,0,0,0.06172839506172839,72.71604938271605,0)" xlink:href="#S"/><use transform="matrix(0.06172839506172839,0,0,0.06172839506172839,85.06172839506173,0)" xlink:href="#K"/><use transform="matrix(0.06172839506172839,0,0,0.06172839506172839,89.93827160493828,0)" xlink:href="#U"/><use transform="matrix(0.06172839506172839,0,0,0.06172839506172839,96.11111111111111,0)" xlink:href="#D"/><use transform="matrix(0.06172839506172839,0,0,0.06172839506172839,107.22222222222223,0)" xlink:href="#K"/><use transform="matrix(0.06172839506172839,0,0,0.06172839506172839,112.09876543209877,0)" xlink:href="#P"/><use transform="matrix(0.06172839506172839,0,0,0.06172839506172839,124.44444444444446,0)" xlink:href="#aa"/></g><g id="r"><use transform="matrix(0.06172839506172839,0,0,0.06172839506172839,0,0)" xlink:href="#Z"/><use transform="matrix(0.06172839506172839,0,0,0.06172839506172839,15.987654320987653,0)" xlink:href="#G"/><use transform="matrix(0.06172839506172839,0,0,0.06172839506172839,28.333333333333332,0)" xlink:href="#J"/><use transform="matrix(0.06172839506172839,0,0,0.06172839506172839,40.67901234567901,0)" xlink:href="#F"/><use transform="matrix(0.06172839506172839,0,0,0.06172839506172839,46.851851851851855,0)" xlink:href="#K"/><use transform="matrix(0.06172839506172839,0,0,0.06172839506172839,51.7283950617284,0)" xlink:href="#P"/><use transform="matrix(0.06172839506172839,0,0,0.06172839506172839,64.07407407407408,0)" xlink:href="#aa"/></g><path fill="#333" d="M30 0v-248h33v221h125V0H30" id="ae"/><path fill="#333" d="M30-248c118-7 216 8 213 122C240-48 200 0 122 0H30v-248zM63-27c89 8 146-16 146-99s-60-101-146-95v194" id="af"/><g id="s"><use transform="matrix(0.06172839506172839,0,0,0.06172839506172839,0,0)" xlink:href="#ae"/><use transform="matrix(0.06172839506172839,0,0,0.06172839506172839,12.345679012345679,0)" xlink:href="#O"/><use transform="matrix(0.06172839506172839,0,0,0.06172839506172839,27.160493827160494,0)" xlink:href="#af"/></g><path fill="#333" d="M240 0l2-218c-23 76-54 145-80 218h-23L58-218 59 0H30v-248h44l77 211c21-75 51-140 76-211h43V0h-30" id="ag"/><g id="t"><use transform="matrix(0.06172839506172839,0,0,0.06172839506172839,0,0)" xlink:href="#ag"/><use transform="matrix(0.06172839506172839,0,0,0.06172839506172839,18.456790123456788,0)" xlink:href="#ab"/><use transform="matrix(0.06172839506172839,0,0,0.06172839506172839,34.44444444444444,0)" xlink:href="#V"/></g><g id="u"><use transform="matrix(0.06172839506172839,0,0,0.06172839506172839,0,0)" xlink:href="#X"/><use transform="matrix(0.06172839506172839,0,0,0.06172839506172839,14.814814814814813,0)" xlink:href="#R"/><use transform="matrix(0.06172839506172839,0,0,0.06172839506172839,27.160493827160494,0)" xlink:href="#F"/><use transform="matrix(0.06172839506172839,0,0,0.06172839506172839,33.333333333333336,0)" xlink:href="#G"/><use transform="matrix(0.06172839506172839,0,0,0.06172839506172839,45.67901234567901,0)" xlink:href="#P"/><use transform="matrix(0.06172839506172839,0,0,0.06172839506172839,58.02469135802469,0)" xlink:href="#F"/><use transform="matrix(0.06172839506172839,0,0,0.06172839506172839,64.19753086419753,0)" xlink:href="#K"/><use transform="matrix(0.06172839506172839,0,0,0.06172839506172839,69.07407407407408,0)" xlink:href="#R"/><use transform="matrix(0.06172839506172839,0,0,0.06172839506172839,81.41975308641976,0)" xlink:href="#H"/><use transform="matrix(0.06172839506172839,0,0,0.06172839506172839,99.87654320987654,0)" xlink:href="#G"/><use transform="matrix(0.06172839506172839,0,0,0.06172839506172839,112.22222222222223,0)" xlink:href="#F"/><use transform="matrix(0.06172839506172839,0,0,0.06172839506172839,118.39506172839506,0)" xlink:href="#G"/><use transform="matrix(0.06172839506172839,0,0,0.06172839506172839,130.74074074074073,0)" xlink:href="#N"/></g><path fill="#333" d="M87 75C49 33 22-17 22-94c0-76 28-126 65-167h31c-38 41-64 92-64 168S80 34 118 75H87" id="ah"/><path fill="#333" d="M143 0L79-87 56-68V0H24v-261h32v163l83-92h37l-77 82L181 0h-38" id="ai"/><path fill="#333" d="M115-194c53 0 69 39 70 98 0 66-23 100-70 100C84 3 66-7 56-30L54 0H23l1-261h32v101c10-23 28-34 59-34zm-8 174c40 0 45-34 45-75 0-40-5-75-45-74-42 0-51 32-51 76 0 43 10 73 51 73" id="aj"/><path fill="#333" d="M33-261c38 41 65 92 65 168S71 34 33 75H2C39 34 66-17 66-93S39-220 2-261h31" id="ak"/><g id="v"><use transform="matrix(0.06172839506172839,0,0,0.06172839506172839,0,0)" xlink:href="#ah"/><use transform="matrix(0.06172839506172839,0,0,0.06172839506172839,7.345679012345679,0)" xlink:href="#ai"/><use transform="matrix(0.06172839506172839,0,0,0.06172839506172839,18.45679012345679,0)" xlink:href="#P"/><use transform="matrix(0.06172839506172839,0,0,0.06172839506172839,30.80246913580247,0)" xlink:href="#R"/><use transform="matrix(0.06172839506172839,0,0,0.06172839506172839,43.148148148148145,0)" xlink:href="#aj"/><use transform="matrix(0.06172839506172839,0,0,0.06172839506172839,55.49382716049382,0)" xlink:href="#ak"/></g><path fill="#333" d="M115-194c55 1 70 41 70 98S169 2 115 4C84 4 66-9 55-30l1 105H24l-1-265h31l2 30c10-21 28-34 59-34zm-8 174c40 0 45-34 45-75s-6-73-45-74c-42 0-51 32-51 76 0 43 10 73 51 73" id="al"/><g id="w"><use transform="matrix(0.06172839506172839,0,0,0.06172839506172839,0,0)" xlink:href="#af"/><use transform="matrix(0.06172839506172839,0,0,0.06172839506172839,15.987654320987653,0)" xlink:href="#K"/><use transform="matrix(0.06172839506172839,0,0,0.06172839506172839,20.864197530864196,0)" xlink:href="#E"/><use transform="matrix(0.06172839506172839,0,0,0.06172839506172839,31.975308641975307,0)" xlink:href="#al"/><use transform="matrix(0.06172839506172839,0,0,0.06172839506172839,44.32098765432099,0)" xlink:href="#L"/><use transform="matrix(0.06172839506172839,0,0,0.06172839506172839,49.19753086419753,0)" xlink:href="#J"/><use transform="matrix(0.06172839506172839,0,0,0.06172839506172839,61.54320987654321,0)" xlink:href="#D"/></g><g id="x"><use transform="matrix(0.06172839506172839,0,0,0.06172839506172839,0,0)" xlink:href="#G"/><use transform="matrix(0.06172839506172839,0,0,0.06172839506172839,12.345679012345679,0)" xlink:href="#L"/><use transform="matrix(0.06172839506172839,0,0,0.06172839506172839,17.22222222222222,0)" xlink:href="#G"/><use transform="matrix(0.06172839506172839,0,0,0.06172839506172839,29.5679012345679,0)" xlink:href="#H"/><use transform="matrix(0.06172839506172839,0,0,0.06172839506172839,48.02469135802468,0)" xlink:href="#G"/><use transform="matrix(0.06172839506172839,0,0,0.06172839506172839,60.37037037037036,0)" xlink:href="#P"/><use transform="matrix(0.06172839506172839,0,0,0.06172839506172839,72.71604938271604,0)" xlink:href="#F"/></g><path fill="#333" d="M266 0h-40l-56-210L115 0H75L2-248h35L96-30l15-64 43-154h32l59 218 59-218h35" id="am"/><g id="y"><use transform="matrix(0.06172839506172839,0,0,0.06172839506172839,0,0)" xlink:href="#am"/><use transform="matrix(0.06172839506172839,0,0,0.06172839506172839,20.123456790123456,0)" xlink:href="#J"/><use transform="matrix(0.06172839506172839,0,0,0.06172839506172839,32.46913580246913,0)" xlink:href="#F"/><use transform="matrix(0.06172839506172839,0,0,0.06172839506172839,38.641975308641975,0)" xlink:href="#G"/><use transform="matrix(0.06172839506172839,0,0,0.06172839506172839,50.98765432098765,0)" xlink:href="#N"/></g><g id="z"><use transform="matrix(0.06172839506172839,0,0,0.06172839506172839,0,0)" xlink:href="#S"/><use transform="matrix(0.06172839506172839,0,0,0.06172839506172839,12.345679012345679,0)" xlink:href="#J"/><use transform="matrix(0.06172839506172839,0,0,0.06172839506172839,24.691358024691358,0)" xlink:href="#H"/><use transform="matrix(0.06172839506172839,0,0,0.06172839506172839,43.148148148148145,0)" xlink:href="#J"/><use transform="matrix(0.06172839506172839,0,0,0.06172839506172839,55.49382716049382,0)" xlink:href="#aa"/><use transform="matrix(0.06172839506172839,0,0,0.06172839506172839,67.8395061728395,0)" xlink:href="#G"/></g><g id="A"><use transform="matrix(0.06172839506172839,0,0,0.06172839506172839,0,0)" xlink:href="#X"/><use transform="matrix(0.06172839506172839,0,0,0.06172839506172839,14.814814814814813,0)" xlink:href="#ad"/><use transform="matrix(0.06172839506172839,0,0,0.06172839506172839,27.160493827160494,0)" xlink:href="#D"/><use transform="matrix(0.06172839506172839,0,0,0.06172839506172839,38.27160493827161,0)" xlink:href="#E"/><use transform="matrix(0.06172839506172839,0,0,0.06172839506172839,49.38271604938272,0)" xlink:href="#K"/><use transform="matrix(0.06172839506172839,0,0,0.06172839506172839,54.25925925925927,0)" xlink:href="#W"/><use transform="matrix(0.06172839506172839,0,0,0.06172839506172839,65.37037037037038,0)" xlink:href="#J"/><use transform="matrix(0.06172839506172839,0,0,0.06172839506172839,77.71604938271606,0)" xlink:href="#L"/></g><g id="B"><use transform="matrix(0.06172839506172839,0,0,0.06172839506172839,0,0)" xlink:href="#C"/><use transform="matrix(0.06172839506172839,0,0,0.06172839506172839,14.814814814814813,0)" xlink:href="#G"/><use transform="matrix(0.06172839506172839,0,0,0.06172839506172839,27.160493827160494,0)" xlink:href="#P"/><use transform="matrix(0.06172839506172839,0,0,0.06172839506172839,39.50617283950617,0)" xlink:href="#E"/><use transform="matrix(0.06172839506172839,0,0,0.06172839506172839,50.61728395061728,0)" xlink:href="#R"/><use transform="matrix(0.06172839506172839,0,0,0.06172839506172839,62.962962962962955,0)" xlink:href="#N"/></g></defs></g></svg>