<svg xmlns="http://www.w3.org/2000/svg" xmlns:xlink="http://www.w3.org/1999/xlink" xmlns:lucid="lucid" width="631.33" height="1091"><g transform="translate(-540 3.552713678800501e-15)" lucid:page-tab-id="0_0"><path d="M698.57 20c12.37 0 22.4 9.1 22.4 20.34s-10.03 20.35-22.4 20.35H631.4C619 60.7 609 51.57 609 40.33 609 29.1 619 20 631.4 20z" stroke="#5e5e5e" stroke-width="3" fill="#fff"/><use xlink:href="#a" transform="matrix(1,0,0,1,613.990931337268,24.999999999999996) translate(31.145061728395067 18.256944444444443)"/><path d="M581 156.17c0-3.3 2.68-6 6-6h155.97c3.3 0 6 2.7 6 6v38.86c0 3.32-2.7 6-6 6H587c-3.32 0-6-2.68-6-6z" stroke="#5e5e5e" stroke-width="3" fill="#fff"/><use xlink:href="#b" transform="matrix(1,0,0,1,592.9961134302578,162.17231281403164) translate(4.117283950617292 15.819444444444443)"/><use xlink:href="#c" transform="matrix(1,0,0,1,592.9961134302578,162.17231281403164) translate(38.901234567901234 15.819444444444443)"/><use xlink:href="#d" transform="matrix(1,0,0,1,592.9961134302578,162.17231281403164) translate(63.96296296296296 15.819444444444443)"/><use xlink:href="#e" transform="matrix(1,0,0,1,592.9961134302578,162.17231281403164) translate(97.58024691358024 15.819444444444443)"/><path d="M595.73 310.62c.85-3.2 4.23-5.8 7.54-5.8h139.7c3.3 0 5.3 2.6 4.45 5.8l-13.18 49.44c-.86 3.2-4.24 5.8-7.55 5.8H587c-3.32 0-5.3-2.6-4.46-5.8z" stroke="#5e5e5e" stroke-width="3" fill="#fff"/><use xlink:href="#f" transform="matrix(1,0,0,1,585.9961134302578,309.82475879288546) translate(34.906234567901244 28.694444444444443)"/><use xlink:href="#g" transform="matrix(1,0,0,1,585.9961134302578,309.82475879288546) translate(88.44327160493827 28.694444444444443)"/><path d="M581 392.2c0-3.3 2.68-6 6-6h155.97c3.3 0 6 2.7 6 6v38.86c0 3.32-2.7 6-6 6H587c-3.32 0-6-2.68-6-6z" stroke="#5e5e5e" stroke-width="3" fill="#fff"/><use xlink:href="#h" transform="matrix(1,0,0,1,592.9961134302578,398.2032613051384) translate(21.098765432098773 12.444444444444443)"/><use xlink:href="#i" transform="matrix(1,0,0,1,592.9961134302578,398.2032613051384) translate(76.27777777777777 12.444444444444443)"/><use xlink:href="#j" transform="matrix(1,0,0,1,592.9961134302578,398.2032613051384) translate(49.55246913580247 31.111111111111107)"/><path d="M668.6 368.36v1.45" stroke="#5e5e5e" stroke-width="2" fill="none"/><path d="M669.6 368.38h-2v-1.02h2" fill="#5e5e5e"/><path d="M665.74 381.56l-1.14-14.96 9 2.2z" stroke="#5e5e5e" stroke-width="2" fill="#5e5e5e"/><path d="M581 236.13c0-3.3 2.68-6.16 6-6.36l155.98-9.4c3.3-.2 6 2.32 6 5.63v49.03c0 3.32-2.7 6-6 6H587c-3.32 0-6-2.68-6-6z" stroke="#5e5e5e" stroke-width="3" fill="#fff"/><use xlink:href="#k" transform="matrix(1,0,0,1,585.9961132684971,235.1723128140316) translate(43.63271604938272 22.694444444444443)"/><use xlink:href="#g" transform="matrix(1,0,0,1,585.9961132684971,235.1723128140316) translate(80.70679012345678 22.694444444444443)"/><path d="M659.48 461.84c3.04-1.32 7.96-1.32 11 0l93.98 40.98c3.04 1.33 3.04 3.47 0 4.8l-93.98 40.98c-3.04 1.32-7.96 1.32-11 0l-93.98-40.98c-3.04-1.33-3.04-3.47 0-4.8z" stroke="#5e5e5e" stroke-width="3" fill="#fff"/><use xlink:href="#l" transform="matrix(1,0,0,1,565.0000000000001,464.44391356616615) translate(56.44944444444446 26.45444444444444)"/><use xlink:href="#m" transform="matrix(1,0,0,1,565.0000000000001,464.44391356616615) translate(20.995740740740754 45.121111111111105)"/><use xlink:href="#n" transform="matrix(1,0,0,1,565.0000000000001,464.44391356616615) translate(75.39697530864198 45.121111111111105)"/><use xlink:href="#o" transform="matrix(1,0,0,1,565.0000000000001,464.44391356616615) translate(92.68092592592593 45.121111111111105)"/><use xlink:href="#p" transform="matrix(1,0,0,1,565.0000000000001,464.44391356616615) translate(130.6624074074074 45.121111111111105)"/><path d="M581 86c0-3.3 2.68-6 6-6h155.97c3.3 0 6 2.7 6 6v38.86c0 3.32-2.7 6-6 6H587c-3.32 0-6-2.68-6-6z" stroke="#5e5e5e" stroke-width="3" fill="#fff"/><use xlink:href="#q" transform="matrix(1,0,0,1,592.9961134302578,92) translate(14.033950617283963 12.444444444444443)"/><use xlink:href="#r" transform="matrix(1,0,0,1,592.9961134302578,92) translate(49.6820987654321 12.444444444444443)"/><use xlink:href="#s" transform="matrix(1,0,0,1,592.9961134302578,92) translate(71.28703703703704 12.444444444444443)"/><use xlink:href="#t" transform="matrix(1,0,0,1,592.9961134302578,92) translate(104.04012345679011 12.444444444444443)"/><use xlink:href="#u" transform="matrix(1,0,0,1,592.9961134302578,92) translate(21.14197530864198 31.111111111111107)"/><use xlink:href="#s" transform="matrix(1,0,0,1,592.9961134302578,92) translate(55.666666666666664 31.111111111111107)"/><use xlink:href="#v" transform="matrix(1,0,0,1,592.9961134302578,92) translate(88.41975308641975 31.111111111111107)"/><path d="M664.98 133.36v-1" stroke="#5e5e5e" stroke-width="2" fill="none"/><path d="M665.98 133.4h-2v-1.04h2" fill="#5e5e5e"/><path d="M664.98 145.44l-4.63-14.27h9.27z" stroke="#5e5e5e" stroke-width="2" fill="#5e5e5e"/><path d="M659.48 622.4c3.04-1.33 7.96-1.33 11 0l93.98 40.98c3.04 1.32 3.04 3.47 0 4.8l-93.98 40.97c-3.04 1.33-7.96 1.33-11 0l-93.98-40.98c-3.04-1.32-3.04-3.47 0-4.8z" stroke="#5e5e5e" stroke-width="3" fill="#fff"/><use xlink:href="#w" transform="matrix(1,0,0,1,565,625) translate(42.64388888888889 35.50694444444444)"/><use xlink:href="#x" transform="matrix(1,0,0,1,565,625) translate(107.28586419753086 35.50694444444444)"/><use xlink:href="#n" transform="matrix(1,0,0,1,565,625) translate(48.19635802469137 54.17361111111111)"/><use xlink:href="#o" transform="matrix(1,0,0,1,565,625) translate(65.48030864197531 54.17361111111111)"/><use xlink:href="#p" transform="matrix(1,0,0,1,565,625) translate(103.46179012345678 54.17361111111111)"/><path d="M846.95 473.25c0-3.3 2.68-6 6-6h155.97c3.3 0 6 2.7 6 6v68c0 3.32-2.7 6-6 6H852.95c-3.32 0-6-2.68-6-6z" stroke="#5e5e5e" stroke-width="3" fill="#fff"/><use xlink:href="#q" transform="matrix(1,0,0,1,858.9468835468547,479.2537837921148) translate(8.848765432098773 22.944444444444443)"/><use xlink:href="#r" transform="matrix(1,0,0,1,858.9468835468547,479.2537837921148) translate(44.49691358024691 22.944444444444443)"/><use xlink:href="#y" transform="matrix(1,0,0,1,858.9468835468547,479.2537837921148) translate(66.10185185185185 22.944444444444443)"/><use xlink:href="#z" transform="matrix(1,0,0,1,858.9468835468547,479.2537837921148) translate(121.36728395061728 22.944444444444443)"/><use xlink:href="#A" transform="matrix(1,0,0,1,858.9468835468547,479.2537837921148) translate(25.009259259259267 41.61111111111111)"/><use xlink:href="#B" transform="matrix(1,0,0,1,858.9468835468547,479.2537837921148) translate(78.50308641975309 41.61111111111111)"/><path d="M793.4 506.22h-24.27v-2h24.26m33.54 1.54h-6.76v-2h6.76" fill="#5e5e5e"/><path d="M769.15 506.22h-1.47l.82-1.82-.2-.18h.85M842.2 504.76l-14.26 4.63v-9.28z" fill="#5e5e5e"/><path d="M845.45 504.76l-18.5 6v-12.02m2 9.27l10.02-3.24-10.03-3.26" fill="#5e5e5e"/><use xlink:href="#C" transform="matrix(1,0,0,1,793.3922409371593,495.6543106517646) translate(0 12.444444444444446)"/><path d="M664.98 439.56V441" stroke="#5e5e5e" stroke-width="2" fill="none"/><path d="M665.98 439.6h-2v-1.04h2" fill="#5e5e5e"/><path d="M664.98 456.25L660.35 442h9.27z" stroke="#5e5e5e" stroke-width="2" fill="#5e5e5e"/><path d="M867.94 631.73c0-3.3 2.7-6 6-6h155.97c3.33 0 6 2.7 6 6v68c0 3.3-2.67 6-6 6H873.95c-3.3 0-6-2.7-6-6z" stroke="#5e5e5e" stroke-width="3" fill="#fff"/><use xlink:href="#q" transform="matrix(1,0,0,1,879.9429969771127,637.7291698776239) translate(4.1388888888889 12.444444444444443)"/><use xlink:href="#r" transform="matrix(1,0,0,1,879.9429969771127,637.7291698776239) translate(39.78703703703704 12.444444444444443)"/><use xlink:href="#D" transform="matrix(1,0,0,1,879.9429969771127,637.7291698776239) translate(61.391975308641975 12.444444444444443)"/><use xlink:href="#E" transform="matrix(1,0,0,1,879.9429969771127,637.7291698776239) translate(15.070987654320994 31.111111111111107)"/><use xlink:href="#F" transform="matrix(1,0,0,1,879.9429969771127,637.7291698776239) translate(33.175925925925924 31.111111111111107)"/><use xlink:href="#B" transform="matrix(1,0,0,1,879.9429969771127,637.7291698776239) translate(51.75617283950618 49.77777777777777)"/><path d="M803.9 666.78h-34.77v-2h34.76m44.04 1.95l-17.26.03v-2l17.26-.03" fill="#5e5e5e"/><path d="M769.15 666.78h-1.47l.82-1.82-.2-.18h.85M863.2 665.73l-14.26 4.63v-9.27z" fill="#5e5e5e"/><path d="M866.44 665.73l-18.5 6v-12m2 9.26l10.03-3.27-10.03-3.26" fill="#5e5e5e"/><use xlink:href="#C" transform="matrix(1,0,0,1,803.8902976522883,656.4189554370498) translate(0 12.444444444444446)"/><path d="M659.48 782.95c3.04-1.32 7.96-1.32 11 0l93.98 40.98c3.04 1.33 3.04 3.48 0 4.8l-93.98 40.98c-3.04 1.33-7.96 1.33-11 0l-93.98-40.97c-3.04-1.32-3.04-3.47 0-4.8z" stroke="#5e5e5e" stroke-width="3" fill="#fff"/><use xlink:href="#G" transform="matrix(1,0,0,1,565.0000000000001,785.5560864338339) translate(41.10993827160494 35.50694444444444)"/><use xlink:href="#H" transform="matrix(1,0,0,1,565.0000000000001,785.5560864338339) translate(96.33216049382716 35.50694444444444)"/><use xlink:href="#I" transform="matrix(1,0,0,1,565.0000000000001,785.5560864338339) translate(149.82598765432098 35.50694444444444)"/><use xlink:href="#o" transform="matrix(1,0,0,1,565.0000000000001,785.5560864338339) translate(43.4864814814815 54.17361111111111)"/><use xlink:href="#J" transform="matrix(1,0,0,1,565.0000000000001,785.5560864338339) translate(81.46796296296297 54.17361111111111)"/><use xlink:href="#K" transform="matrix(1,0,0,1,565.0000000000001,785.5560864338339) translate(115.99265432098765 54.17361111111111)"/><path d="M867.94 810.52c0-3.32 2.7-6 6-6h155.97c3.33 0 6 2.68 6 6v47.2c0 3.3-2.67 6-6 6H873.95c-3.3 0-6-2.7-6-6z" stroke="#5e5e5e" stroke-width="3" fill="#fff"/><use xlink:href="#q" transform="matrix(1,0,0,1,879.942996977113,816.51650688943) translate(10.166666666666686 21.444444444444443)"/><use xlink:href="#r" transform="matrix(1,0,0,1,879.942996977113,816.51650688943) translate(45.814814814814824 21.444444444444443)"/><use xlink:href="#L" transform="matrix(1,0,0,1,879.942996977113,816.51650688943) translate(67.41975308641976 21.444444444444443)"/><use xlink:href="#B" transform="matrix(1,0,0,1,879.942996977113,816.51650688943) translate(93.34567901234567 21.444444444444443)"/><path d="M847.94 826.92v2h-17.26v-2m-61.55.4v-2h34.76v2" fill="#5e5e5e"/><path d="M769.15 827.33h-1.47l.82-1.82-.2-.17h.85M863.2 827.92l-14.26 4.63v-9.27z" fill="#5e5e5e"/><path d="M866.44 827.92l-18.5 6v-12m2 9.26l10.03-3.26-10.03-3.26" fill="#5e5e5e"/><use xlink:href="#C" transform="matrix(1,0,0,1,803.8902976522885,817.7915359838144) translate(0 12.444444444444446)"/><path d="M659.48 930.45c3.04-1.32 7.96-1.32 11 0l93.98 40.98c3.04 1.33 3.04 3.47 0 4.8l-93.98 40.98c-3.04 1.33-7.96 1.33-11 0l-93.98-40.97c-3.04-1.33-3.04-3.47 0-4.8z" stroke="#5e5e5e" stroke-width="3" fill="#fff"/><use xlink:href="#M" transform="matrix(1,0,0,1,565.0000000000001,933.0546222372928) translate(53.20870370370371 35.50694444444444)"/><use xlink:href="#N" transform="matrix(1,0,0,1,565.0000000000001,933.0546222372928) translate(126.88154320987654 35.50694444444444)"/><use xlink:href="#O" transform="matrix(1,0,0,1,565.0000000000001,933.0546222372928) translate(49.55746913580247 54.17361111111111)"/><use xlink:href="#P" transform="matrix(1,0,0,1,565.0000000000001,933.0546222372928) translate(88.31672839506173 54.17361111111111)"/><path d="M867.94 944.02c0-3.3 2.7-6 6-6h155.97c3.33 0 6 2.7 6 6v59.62c0 3.3-2.67 6-6 6H873.95c-3.3 0-6-2.7-6-6z" stroke="#5e5e5e" stroke-width="3" fill="#fff"/><use xlink:href="#Q" transform="matrix(1,0,0,1,879.942996977113,950.0234887950439) translate(13.753086419753089 12.444444444444443)"/><use xlink:href="#R" transform="matrix(1,0,0,1,879.942996977113,950.0234887950439) translate(63.79012345679012 12.444444444444443)"/><use xlink:href="#t" transform="matrix(1,0,0,1,879.942996977113,950.0234887950439) translate(104.32098765432099 12.444444444444443)"/><use xlink:href="#u" transform="matrix(1,0,0,1,879.942996977113,950.0234887950439) translate(15.481481481481495 31.111111111111107)"/><use xlink:href="#S" transform="matrix(1,0,0,1,879.942996977113,950.0234887950439) translate(50.00617283950618 31.111111111111107)"/><use xlink:href="#v" transform="matrix(1,0,0,1,879.942996977113,950.0234887950439) translate(54.78086419753087 49.77777777777777)"/><path d="M803.9 974.83h-34.77v-2h34.76m44.04 2h-17.26v-2h17.26" fill="#5e5e5e"/><path d="M769.15 974.83h-1.47l.82-1.82-.2-.17h.85M863.2 973.83l-14.26 4.64v-9.28z" fill="#5e5e5e"/><path d="M866.44 973.83l-18.5 6v-12m2 9.26l10.03-3.27-10.03-3.26" fill="#5e5e5e"/><g><use xlink:href="#C" transform="matrix(1,0,0,1,803.8902976522885,964.4966965671018) translate(0 12.444444444444446)"/></g><path d="M665.98 909.6h-2v-.2h2m0-18.65h-2v-17.7h2" fill="#5e5e5e"/><path d="M665.98 873.1h-2v-1.02l2-.04M664.98 924.87l-4.63-14.27h9.27z" fill="#5e5e5e"/><path d="M664.98 928.1l-6-18.5h12m-9.26 2l3.26 10.03 3.26-10.03" fill="#5e5e5e"/><g><use xlink:href="#T" transform="matrix(1,0,0,1,654.6534066574613,890.7474285082034) translate(0 12.444444444444446)"/></g><path d="M1077.03 834.04l2.53 2.53.92 3.42v39.32l-.92 3.42-2.53 2.53-3.42.92H683.5v-2h389.87l2.64-.73 1.76-1.77.72-2.64v-38.8l-.72-2.65-1.77-1.77-2.65-.7h-34.94v-2h35.2" fill="#5e5e5e"/><path d="M1038.44 835.12h-1.03v-2h1.04M682.48 889.82l-14.26-4.63 14.26-4.65z" fill="#5e5e5e"/><path d="M683.48 891.2l-18.5-6 18.5-6.02m-12.03 6l10.03 3.27v-6.52M1151 1054.13l-.92 3.42-2.53 2.53-3.42.92H670.85l-3.42-.92-2.53-2.53-.92-3.42v-33.57h2v33.3l.72 2.65 1.77 1.8 2.64.7h472.77l2.64-.7 1.8-1.8.7-2.63V690.1h2m-3.45-514.57l2.53 2.53.92 3.4v489.97h-2v-489.7l-.7-2.64-1.8-1.78-2.63-.72h-374.9v-2h375.16" fill="#5e5e5e"/><path d="M665.98 1020.58h-2v-1l2-.04M767.97 180.24l-14.27-4.64 14.27-4.63z" fill="#5e5e5e"/><path d="M768.97 181.6l-18.5-6 18.5-6m-12.03 6l10.03 3.26v-6.52" fill="#5e5e5e"/><g><use xlink:href="#T" transform="matrix(1,0,0,1,1139.6728395061727,671.4310577521804) translate(0 12.444444444444446)"/></g><path d="M665.98 601.54h-2v-5.38h2m0-21.33h-2v-22.88h2" fill="#5e5e5e"/><path d="M665.98 551.97h-2v-1l2-.04M664.98 616.8l-4.63-14.26h9.27z" fill="#5e5e5e"/><path d="M664.98 620.05l-6-18.5h12m-9.26 2l3.26 10.02 3.26-10.03" fill="#5e5e5e"/><g><use xlink:href="#U" transform="matrix(1,0,0,1,653.1780978883045,574.8306976245682) translate(0 14.222222222222223)"/></g><path d="M1053.96 507.18l2.53 2.53.92 3.42v47.95l-.93 3.4-2.54 2.54-3.4.93H683.47v-2h366.8l2.65-.7 1.77-1.8.72-2.63v-47.4l-.72-2.66-1.77-1.77-2.65-.72h-32.86v-2h33.13" fill="#5e5e5e"/><path d="M1017.44 508.25h-1.02v-2h1.02M682.48 571.57l-14.26-4.64 14.26-4.63z" fill="#5e5e5e"/><path d="M683.48 572.95l-18.5-6.02 18.5-6m-12.03 6l10.03 3.26v-6.53M665.98 762.1h-2v-5.38h2m0-21.33h-2v-22.9h2" fill="#5e5e5e"/><path d="M665.98 712.53h-2v-1l2-.04M664.98 777.37l-4.63-14.27h9.27z" fill="#5e5e5e"/><path d="M664.98 780.6l-6-18.5h12m-9.26 2l3.26 10.03 3.26-10.03" fill="#5e5e5e"/><g><use xlink:href="#U" transform="matrix(1,0,0,1,653.1780978883044,735.3867840584022) translate(0 14.222222222222223)"/></g><path d="M1074.96 665.65l2.53 2.53.9 3.42v50.8l-.9 3.4-2.54 2.54-3.42.93H683.48v-2h387.8l2.64-.72 1.78-1.77.7-2.65v-50.27l-.7-2.64-1.78-1.78-2.64-.7h-32.87v-2h33.14" fill="#5e5e5e"/><path d="M1038.44 666.73h-1.03v-2h1.04M682.48 732.9l-14.26-4.63 14.26-4.64z" fill="#5e5e5e"/><path d="M683.48 734.28l-18.5-6 18.5-6.03m-12.03 6.02l10.03 3.26V725" fill="#5e5e5e"/><path d="M1038.4 973.83h55.94c3.32 0 6 2.7 6 6v61.67" stroke="#5e5e5e" stroke-width="2" fill="none"/><path d="M1038.44 974.83h-1.03v-2h1.04" fill="#5e5e5e"/><path d="M1100.34 1056.76l-4.63-14.26h9.28z" stroke="#5e5e5e" stroke-width="2" fill="#5e5e5e"/><path d="M664.98 63.2v-1" stroke="#5e5e5e" stroke-width="2" fill="none"/><path d="M665.98 63.2h-2v-1h2" fill="#5e5e5e"/><path d="M664.98 75.26L660.35 61h9.27z" stroke="#5e5e5e" stroke-width="2" fill="#5e5e5e"/><path d="M664.98 203.53v1.53" stroke="#5e5e5e" stroke-width="2" fill="none"/><path d="M665.98 203.56h-2v-1.03h2" fill="#5e5e5e"/><path d="M664.98 220.33l-4.63-14.27h9.27z" stroke="#5e5e5e" stroke-width="2" fill="#5e5e5e"/><path d="M664.98 283.53v1.3" stroke="#5e5e5e" stroke-width="2" fill="none"/><path d="M665.98 283.56h-2v-1.03h2" fill="#5e5e5e"/><path d="M664.98 300.1l-4.63-14.28h9.27z" stroke="#5e5e5e" stroke-width="2" fill="#5e5e5e"/><defs><path fill="#333" d="M160-131c35 5 61 23 61 61C221 17 115-2 30 0v-248c76 3 177-17 177 60 0 33-19 50-47 57zm-97-11c50-1 110 9 110-42 0-47-63-36-110-37v79zm0 115c55-2 124 14 124-45 0-56-70-42-124-44v89" id="V"/><path fill="#333" d="M100-194c63 0 86 42 84 106H49c0 40 14 67 53 68 26 1 43-12 49-29l28 8c-11 28-37 45-77 45C44 4 14-33 15-96c1-61 26-98 85-98zm52 81c6-60-76-77-97-28-3 7-6 17-6 28h103" id="W"/><path fill="#333" d="M177-190C167-65 218 103 67 71c-23-6-38-20-44-43l32-5c15 47 100 32 89-28v-30C133-14 115 1 83 1 29 1 15-40 15-95c0-56 16-97 71-98 29-1 48 16 59 35 1-10 0-23 2-32h30zM94-22c36 0 50-32 50-73 0-42-14-75-50-75-39 0-46 34-46 75s6 73 46 73" id="X"/><path fill="#333" d="M24-231v-30h32v30H24zM24 0v-190h32V0H24" id="Y"/><path fill="#333" d="M117-194c89-4 53 116 60 194h-32v-121c0-31-8-49-39-48C34-167 62-67 57 0H25l-1-190h30c1 10-1 24 2 32 11-22 29-35 61-36" id="Z"/><g id="a"><use transform="matrix(0.04320987654320987,0,0,0.04320987654320987,0,0)" xlink:href="#V"/><use transform="matrix(0.04320987654320987,0,0,0.04320987654320987,10.370370370370368,0)" xlink:href="#W"/><use transform="matrix(0.04320987654320987,0,0,0.04320987654320987,19.01234567901234,0)" xlink:href="#X"/><use transform="matrix(0.04320987654320987,0,0,0.04320987654320987,27.654320987654316,0)" xlink:href="#Y"/><use transform="matrix(0.04320987654320987,0,0,0.04320987654320987,31.067901234567895,0)" xlink:href="#Z"/></g><path fill="#333" d="M266 0h-40l-56-210L115 0H75L2-248h35L96-30l15-64 43-154h32l59 218 59-218h35" id="aa"/><path fill="#333" d="M141-36C126-15 110 5 73 4 37 3 15-17 15-53c-1-64 63-63 125-63 3-35-9-54-41-54-24 1-41 7-42 31l-33-3c5-37 33-52 76-52 45 0 72 20 72 64v82c-1 20 7 32 28 27v20c-31 9-61-2-59-35zM48-53c0 20 12 33 32 33 41-3 63-29 60-74-43 2-92-5-92 41" id="ab"/><path fill="#333" d="M59-47c-2 24 18 29 38 22v24C64 9 27 4 27-40v-127H5v-23h24l9-43h21v43h35v23H59v120" id="ac"/><g id="b"><use transform="matrix(0.04320987654320987,0,0,0.04320987654320987,0,0)" xlink:href="#aa"/><use transform="matrix(0.04320987654320987,0,0,0.04320987654320987,14.086419753086417,0)" xlink:href="#ab"/><use transform="matrix(0.04320987654320987,0,0,0.04320987654320987,22.72839506172839,0)" xlink:href="#Y"/><use transform="matrix(0.04320987654320987,0,0,0.04320987654320987,26.14197530864197,0)" xlink:href="#ac"/></g><path fill="#333" d="M135-143c-3-34-86-38-87 0 15 53 115 12 119 90S17 21 10-45l28-5c4 36 97 45 98 0-10-56-113-15-118-90-4-57 82-63 122-42 12 7 21 19 24 35" id="ad"/><g id="c"><use transform="matrix(0.04320987654320987,0,0,0.04320987654320987,0,0)" xlink:href="#ad"/><use transform="matrix(0.04320987654320987,0,0,0.04320987654320987,7.777777777777776,0)" xlink:href="#W"/><use transform="matrix(0.04320987654320987,0,0,0.04320987654320987,16.41975308641975,0)" xlink:href="#ac"/></g><path fill="#333" d="M210-169c-67 3-38 105-44 169h-31v-121c0-29-5-50-35-48C34-165 62-65 56 0H25l-1-190h30c1 10-1 24 2 32 10-44 99-50 107 0 11-21 27-35 58-36 85-2 47 119 55 194h-31v-121c0-29-5-49-35-48" id="ae"/><g id="d"><use transform="matrix(0.04320987654320987,0,0,0.04320987654320987,0,0)" xlink:href="#ac"/><use transform="matrix(0.04320987654320987,0,0,0.04320987654320987,4.320987654320986,0)" xlink:href="#Y"/><use transform="matrix(0.04320987654320987,0,0,0.04320987654320987,7.734567901234566,0)" xlink:href="#ae"/><use transform="matrix(0.04320987654320987,0,0,0.04320987654320987,20.654320987654316,0)" xlink:href="#W"/></g><path fill="#333" d="M24 0v-261h32V0H24" id="af"/><path fill="#333" d="M106-169C34-169 62-67 57 0H25v-261h32l-1 103c12-21 28-36 61-36 89 0 53 116 60 194h-32v-121c2-32-8-49-39-48" id="ag"/><g id="e"><use transform="matrix(0.04320987654320987,0,0,0.04320987654320987,0,0)" xlink:href="#af"/><use transform="matrix(0.04320987654320987,0,0,0.04320987654320987,3.4135802469135794,0)" xlink:href="#W"/><use transform="matrix(0.04320987654320987,0,0,0.04320987654320987,12.055555555555554,0)" xlink:href="#Z"/><use transform="matrix(0.04320987654320987,0,0,0.04320987654320987,20.697530864197525,0)" xlink:href="#X"/><use transform="matrix(0.04320987654320987,0,0,0.04320987654320987,29.3395061728395,0)" xlink:href="#ac"/><use transform="matrix(0.04320987654320987,0,0,0.04320987654320987,33.66049382716049,0)" xlink:href="#ag"/></g><path fill="#333" d="M185-189c-5-48-123-54-124 2 14 75 158 14 163 119 3 78-121 87-175 55-17-10-28-26-33-46l33-7c5 56 141 63 141-1 0-78-155-14-162-118-5-82 145-84 179-34 5 7 8 16 11 25" id="ah"/><path fill="#333" d="M100-194c62-1 85 37 85 99 1 63-27 99-86 99S16-35 15-95c0-66 28-99 85-99zM99-20c44 1 53-31 53-75 0-43-8-75-51-75s-53 32-53 75 10 74 51 75" id="ai"/><path fill="#333" d="M114-163C36-179 61-72 57 0H25l-1-190h30c1 12-1 29 2 39 6-27 23-49 58-41v29" id="aj"/><g id="f"><use transform="matrix(0.04320987654320987,0,0,0.04320987654320987,0,0)" xlink:href="#ah"/><use transform="matrix(0.04320987654320987,0,0,0.04320987654320987,10.370370370370368,0)" xlink:href="#W"/><use transform="matrix(0.04320987654320987,0,0,0.04320987654320987,19.01234567901234,0)" xlink:href="#Z"/><use transform="matrix(0.04320987654320987,0,0,0.04320987654320987,27.654320987654316,0)" xlink:href="#ad"/><use transform="matrix(0.04320987654320987,0,0,0.04320987654320987,35.432098765432094,0)" xlink:href="#ai"/><use transform="matrix(0.04320987654320987,0,0,0.04320987654320987,44.07407407407407,0)" xlink:href="#aj"/></g><path fill="#333" d="M115-194c55 1 70 41 70 98S169 2 115 4C84 4 66-9 55-30l1 105H24l-1-265h31l2 30c10-21 28-34 59-34zm-8 174c40 0 45-34 45-75s-6-73-45-74c-42 0-51 32-51 76 0 43 10 73 51 73" id="ak"/><path fill="#333" d="M84 4C-5 8 30-112 23-190h32v120c0 31 7 50 39 49 72-2 45-101 50-169h31l1 190h-30c-1-10 1-25-2-33-11 22-28 36-60 37" id="al"/><g id="g"><use transform="matrix(0.04320987654320987,0,0,0.04320987654320987,0,0)" xlink:href="#Y"/><use transform="matrix(0.04320987654320987,0,0,0.04320987654320987,3.4135802469135794,0)" xlink:href="#Z"/><use transform="matrix(0.04320987654320987,0,0,0.04320987654320987,12.055555555555554,0)" xlink:href="#ak"/><use transform="matrix(0.04320987654320987,0,0,0.04320987654320987,20.697530864197525,0)" xlink:href="#al"/><use transform="matrix(0.04320987654320987,0,0,0.04320987654320987,29.3395061728395,0)" xlink:href="#ac"/></g><path fill="#333" d="M30-248c118-7 216 8 213 122C240-48 200 0 122 0H30v-248zM63-27c89 8 146-16 146-99s-60-101-146-95v194" id="am"/><path fill="#333" d="M179-190L93 31C79 59 56 82 12 73V49c39 6 53-20 64-50L1-190h34L92-34l54-156h33" id="an"/><g id="h"><use transform="matrix(0.04320987654320987,0,0,0.04320987654320987,0,0)" xlink:href="#am"/><use transform="matrix(0.04320987654320987,0,0,0.04320987654320987,11.191358024691356,0)" xlink:href="#Y"/><use transform="matrix(0.04320987654320987,0,0,0.04320987654320987,14.604938271604935,0)" xlink:href="#ad"/><use transform="matrix(0.04320987654320987,0,0,0.04320987654320987,22.38271604938271,0)" xlink:href="#ak"/><use transform="matrix(0.04320987654320987,0,0,0.04320987654320987,31.024691358024686,0)" xlink:href="#af"/><use transform="matrix(0.04320987654320987,0,0,0.04320987654320987,34.438271604938265,0)" xlink:href="#ab"/><use transform="matrix(0.04320987654320987,0,0,0.04320987654320987,43.08024691358024,0)" xlink:href="#an"/></g><g id="i"><use transform="matrix(0.04320987654320987,0,0,0.04320987654320987,0,0)" xlink:href="#ad"/><use transform="matrix(0.04320987654320987,0,0,0.04320987654320987,7.777777777777776,0)" xlink:href="#W"/><use transform="matrix(0.04320987654320987,0,0,0.04320987654320987,16.41975308641975,0)" xlink:href="#Z"/><use transform="matrix(0.04320987654320987,0,0,0.04320987654320987,25.061728395061724,0)" xlink:href="#ad"/><use transform="matrix(0.04320987654320987,0,0,0.04320987654320987,32.8395061728395,0)" xlink:href="#ai"/><use transform="matrix(0.04320987654320987,0,0,0.04320987654320987,41.481481481481474,0)" xlink:href="#aj"/></g><path fill="#333" d="M108 0H70L1-190h34L89-25l56-165h34" id="ao"/><g id="j"><use transform="matrix(0.04320987654320987,0,0,0.04320987654320987,0,0)" xlink:href="#ao"/><use transform="matrix(0.04320987654320987,0,0,0.04320987654320987,7.777777777777776,0)" xlink:href="#ab"/><use transform="matrix(0.04320987654320987,0,0,0.04320987654320987,16.41975308641975,0)" xlink:href="#af"/><use transform="matrix(0.04320987654320987,0,0,0.04320987654320987,19.83333333333333,0)" xlink:href="#al"/><use transform="matrix(0.04320987654320987,0,0,0.04320987654320987,28.475308641975303,0)" xlink:href="#W"/><use transform="matrix(0.04320987654320987,0,0,0.04320987654320987,37.11728395061728,0)" xlink:href="#ad"/></g><path fill="#333" d="M232-93c-1 65-40 97-104 97C67 4 28-28 28-90v-158h33c8 89-33 224 67 224 102 0 64-133 71-224h33v155" id="ap"/><g id="k"><use transform="matrix(0.04320987654320987,0,0,0.04320987654320987,0,0)" xlink:href="#ap"/><use transform="matrix(0.04320987654320987,0,0,0.04320987654320987,11.191358024691356,0)" xlink:href="#ad"/><use transform="matrix(0.04320987654320987,0,0,0.04320987654320987,18.969135802469133,0)" xlink:href="#W"/><use transform="matrix(0.04320987654320987,0,0,0.04320987654320987,27.611111111111104,0)" xlink:href="#aj"/></g><path fill="#333" d="M127-220V0H93v-220H8v-28h204v28h-85" id="aq"/><g id="l"><use transform="matrix(0.04320987654320987,0,0,0.04320987654320987,0,0)" xlink:href="#aq"/><use transform="matrix(0.04320987654320987,0,0,0.04320987654320987,7.734567901234565,0)" xlink:href="#W"/><use transform="matrix(0.04320987654320987,0,0,0.04320987654320987,16.376543209876537,0)" xlink:href="#ae"/><use transform="matrix(0.04320987654320987,0,0,0.04320987654320987,29.296296296296283,0)" xlink:href="#ak"/><use transform="matrix(0.04320987654320987,0,0,0.04320987654320987,37.93827160493826,0)" xlink:href="#W"/><use transform="matrix(0.04320987654320987,0,0,0.04320987654320987,46.58024691358024,0)" xlink:href="#aj"/><use transform="matrix(0.04320987654320987,0,0,0.04320987654320987,51.722222222222214,0)" xlink:href="#ab"/><use transform="matrix(0.04320987654320987,0,0,0.04320987654320987,60.36419753086418,0)" xlink:href="#ac"/><use transform="matrix(0.04320987654320987,0,0,0.04320987654320987,64.68518518518516,0)" xlink:href="#al"/><use transform="matrix(0.04320987654320987,0,0,0.04320987654320987,73.32716049382714,0)" xlink:href="#aj"/><use transform="matrix(0.04320987654320987,0,0,0.04320987654320987,78.46913580246911,0)" xlink:href="#W"/></g><path fill="#333" d="M85-194c31 0 48 13 60 33l-1-100h32l1 261h-30c-2-10 0-23-3-31C134-8 116 4 85 4 32 4 16-35 15-94c0-66 23-100 70-100zm9 24c-40 0-46 34-46 75 0 40 6 74 45 74 42 0 51-32 51-76 0-42-9-74-50-73" id="ar"/><g id="m"><use transform="matrix(0.04320987654320987,0,0,0.04320987654320987,0,0)" xlink:href="#ai"/><use transform="matrix(0.04320987654320987,0,0,0.04320987654320987,8.641975308641973,0)" xlink:href="#al"/><use transform="matrix(0.04320987654320987,0,0,0.04320987654320987,17.283950617283946,0)" xlink:href="#ac"/><use transform="matrix(0.04320987654320987,0,0,0.04320987654320987,21.604938271604933,0)" xlink:href="#ad"/><use transform="matrix(0.04320987654320987,0,0,0.04320987654320987,29.382716049382708,0)" xlink:href="#Y"/><use transform="matrix(0.04320987654320987,0,0,0.04320987654320987,32.79629629629629,0)" xlink:href="#ar"/><use transform="matrix(0.04320987654320987,0,0,0.04320987654320987,41.438271604938265,0)" xlink:href="#W"/></g><path fill="#333" d="M101-234c-31-9-42 10-38 44h38v23H63V0H32v-167H5v-23h27c-7-52 17-82 69-68v24" id="as"/><g id="n"><use transform="matrix(0.04320987654320987,0,0,0.04320987654320987,0,0)" xlink:href="#ai"/><use transform="matrix(0.04320987654320987,0,0,0.04320987654320987,8.641975308641973,0)" xlink:href="#as"/></g><g id="o"><use transform="matrix(0.04320987654320987,0,0,0.04320987654320987,0,0)" xlink:href="#Y"/><use transform="matrix(0.04320987654320987,0,0,0.04320987654320987,3.4135802469135794,0)" xlink:href="#Z"/><use transform="matrix(0.04320987654320987,0,0,0.04320987654320987,12.055555555555554,0)" xlink:href="#ak"/><use transform="matrix(0.04320987654320987,0,0,0.04320987654320987,20.697530864197525,0)" xlink:href="#al"/><use transform="matrix(0.04320987654320987,0,0,0.04320987654320987,29.3395061728395,0)" xlink:href="#ac"/></g><path fill="#333" d="M103-251c84 0 111 97 45 133-19 10-37 24-39 52H78c0-63 77-55 77-114 0-30-21-42-52-43-32 0-53 17-56 46l-32-2c7-45 34-72 88-72zM77 0v-35h34V0H77" id="at"/><g id="p"><use transform="matrix(0.04320987654320987,0,0,0.04320987654320987,0,0)" xlink:href="#aj"/><use transform="matrix(0.04320987654320987,0,0,0.04320987654320987,5.141975308641975,0)" xlink:href="#ab"/><use transform="matrix(0.04320987654320987,0,0,0.04320987654320987,13.783950617283947,0)" xlink:href="#Z"/><use transform="matrix(0.04320987654320987,0,0,0.04320987654320987,22.42592592592592,0)" xlink:href="#X"/><use transform="matrix(0.04320987654320987,0,0,0.04320987654320987,31.06790123456789,0)" xlink:href="#W"/><use transform="matrix(0.04320987654320987,0,0,0.04320987654320987,39.709876543209866,0)" xlink:href="#at"/></g><g id="q"><use transform="matrix(0.04320987654320987,0,0,0.04320987654320987,0,0)" xlink:href="#aq"/><use transform="matrix(0.04320987654320987,0,0,0.04320987654320987,8.901234567901232,0)" xlink:href="#al"/><use transform="matrix(0.04320987654320987,0,0,0.04320987654320987,17.543209876543205,0)" xlink:href="#aj"/><use transform="matrix(0.04320987654320987,0,0,0.04320987654320987,22.68518518518518,0)" xlink:href="#Z"/></g><g id="r"><use transform="matrix(0.04320987654320987,0,0,0.04320987654320987,0,0)" xlink:href="#ai"/><use transform="matrix(0.04320987654320987,0,0,0.04320987654320987,8.641975308641973,0)" xlink:href="#Z"/></g><g id="s"><use transform="matrix(0.04320987654320987,0,0,0.04320987654320987,0,0)" xlink:href="#af"/><use transform="matrix(0.04320987654320987,0,0,0.04320987654320987,3.4135802469135794,0)" xlink:href="#Y"/><use transform="matrix(0.04320987654320987,0,0,0.04320987654320987,6.827160493827159,0)" xlink:href="#X"/><use transform="matrix(0.04320987654320987,0,0,0.04320987654320987,15.469135802469133,0)" xlink:href="#ag"/><use transform="matrix(0.04320987654320987,0,0,0.04320987654320987,24.111111111111107,0)" xlink:href="#ac"/></g><g id="t"><use transform="matrix(0.04320987654320987,0,0,0.04320987654320987,0,0)" xlink:href="#ab"/><use transform="matrix(0.04320987654320987,0,0,0.04320987654320987,8.641975308641973,0)" xlink:href="#Z"/><use transform="matrix(0.04320987654320987,0,0,0.04320987654320987,17.283950617283946,0)" xlink:href="#ar"/></g><g id="u"><use transform="matrix(0.04320987654320987,0,0,0.04320987654320987,0,0)" xlink:href="#ad"/><use transform="matrix(0.04320987654320987,0,0,0.04320987654320987,7.777777777777776,0)" xlink:href="#ac"/><use transform="matrix(0.04320987654320987,0,0,0.04320987654320987,12.098765432098762,0)" xlink:href="#ab"/><use transform="matrix(0.04320987654320987,0,0,0.04320987654320987,20.740740740740733,0)" xlink:href="#aj"/><use transform="matrix(0.04320987654320987,0,0,0.04320987654320987,25.882716049382704,0)" xlink:href="#ac"/></g><g id="v"><use transform="matrix(0.04320987654320987,0,0,0.04320987654320987,0,0)" xlink:href="#ac"/><use transform="matrix(0.04320987654320987,0,0,0.04320987654320987,4.320987654320986,0)" xlink:href="#Y"/><use transform="matrix(0.04320987654320987,0,0,0.04320987654320987,7.734567901234566,0)" xlink:href="#ae"/><use transform="matrix(0.04320987654320987,0,0,0.04320987654320987,20.654320987654316,0)" xlink:href="#W"/><use transform="matrix(0.04320987654320987,0,0,0.04320987654320987,29.29629629629629,0)" xlink:href="#aj"/></g><path fill="#333" d="M197 0v-115H63V0H30v-248h33v105h134v-105h34V0h-34" id="au"/><g id="w"><use transform="matrix(0.04320987654320987,0,0,0.04320987654320987,0,0)" xlink:href="#au"/><use transform="matrix(0.04320987654320987,0,0,0.04320987654320987,11.191358024691356,0)" xlink:href="#al"/><use transform="matrix(0.04320987654320987,0,0,0.04320987654320987,19.83333333333333,0)" xlink:href="#ae"/><use transform="matrix(0.04320987654320987,0,0,0.04320987654320987,32.753086419753075,0)" xlink:href="#Y"/><use transform="matrix(0.04320987654320987,0,0,0.04320987654320987,36.16666666666666,0)" xlink:href="#ar"/><use transform="matrix(0.04320987654320987,0,0,0.04320987654320987,44.80864197530863,0)" xlink:href="#Y"/><use transform="matrix(0.04320987654320987,0,0,0.04320987654320987,48.222222222222214,0)" xlink:href="#ac"/><use transform="matrix(0.04320987654320987,0,0,0.04320987654320987,52.5432098765432,0)" xlink:href="#an"/></g><g id="x"><use transform="matrix(0.04320987654320987,0,0,0.04320987654320987,0,0)" xlink:href="#ai"/><use transform="matrix(0.04320987654320987,0,0,0.04320987654320987,8.641975308641973,0)" xlink:href="#al"/><use transform="matrix(0.04320987654320987,0,0,0.04320987654320987,17.283950617283946,0)" xlink:href="#ac"/><use transform="matrix(0.04320987654320987,0,0,0.04320987654320987,21.604938271604933,0)" xlink:href="#ad"/><use transform="matrix(0.04320987654320987,0,0,0.04320987654320987,29.382716049382708,0)" xlink:href="#Y"/><use transform="matrix(0.04320987654320987,0,0,0.04320987654320987,32.79629629629629,0)" xlink:href="#ar"/><use transform="matrix(0.04320987654320987,0,0,0.04320987654320987,41.438271604938265,0)" xlink:href="#W"/></g><g id="y"><use transform="matrix(0.04320987654320987,0,0,0.04320987654320987,0,0)" xlink:href="#ag"/><use transform="matrix(0.04320987654320987,0,0,0.04320987654320987,8.641975308641973,0)" xlink:href="#W"/><use transform="matrix(0.04320987654320987,0,0,0.04320987654320987,17.283950617283946,0)" xlink:href="#ab"/><use transform="matrix(0.04320987654320987,0,0,0.04320987654320987,25.925925925925917,0)" xlink:href="#ac"/><use transform="matrix(0.04320987654320987,0,0,0.04320987654320987,30.2469135802469,0)" xlink:href="#Y"/><use transform="matrix(0.04320987654320987,0,0,0.04320987654320987,33.66049382716049,0)" xlink:href="#Z"/><use transform="matrix(0.04320987654320987,0,0,0.04320987654320987,42.30246913580246,0)" xlink:href="#X"/></g><g id="z"><use transform="matrix(0.04320987654320987,0,0,0.04320987654320987,0,0)" xlink:href="#ai"/><use transform="matrix(0.04320987654320987,0,0,0.04320987654320987,8.641975308641973,0)" xlink:href="#aj"/></g><path fill="#333" d="M96-169c-40 0-48 33-48 73s9 75 48 75c24 0 41-14 43-38l32 2c-6 37-31 61-74 61-59 0-76-41-82-99-10-93 101-131 147-64 4 7 5 14 7 22l-32 3c-4-21-16-35-41-35" id="av"/><g id="A"><use transform="matrix(0.04320987654320987,0,0,0.04320987654320987,0,0)" xlink:href="#av"/><use transform="matrix(0.04320987654320987,0,0,0.04320987654320987,7.777777777777776,0)" xlink:href="#ai"/><use transform="matrix(0.04320987654320987,0,0,0.04320987654320987,16.41975308641975,0)" xlink:href="#ai"/><use transform="matrix(0.04320987654320987,0,0,0.04320987654320987,25.061728395061724,0)" xlink:href="#af"/><use transform="matrix(0.04320987654320987,0,0,0.04320987654320987,28.475308641975296,0)" xlink:href="#Y"/><use transform="matrix(0.04320987654320987,0,0,0.04320987654320987,31.88888888888888,0)" xlink:href="#Z"/><use transform="matrix(0.04320987654320987,0,0,0.04320987654320987,40.53086419753085,0)" xlink:href="#X"/></g><g id="B"><use transform="matrix(0.04320987654320987,0,0,0.04320987654320987,0,0)" xlink:href="#av"/><use transform="matrix(0.04320987654320987,0,0,0.04320987654320987,7.777777777777776,0)" xlink:href="#Y"/><use transform="matrix(0.04320987654320987,0,0,0.04320987654320987,11.191358024691356,0)" xlink:href="#aj"/><use transform="matrix(0.04320987654320987,0,0,0.04320987654320987,16.33333333333333,0)" xlink:href="#av"/><use transform="matrix(0.04320987654320987,0,0,0.04320987654320987,24.111111111111107,0)" xlink:href="#al"/><use transform="matrix(0.04320987654320987,0,0,0.04320987654320987,32.753086419753075,0)" xlink:href="#Y"/><use transform="matrix(0.04320987654320987,0,0,0.04320987654320987,36.16666666666666,0)" xlink:href="#ac"/></g><path fill="#333" d="M146-102V0H94v-102L6-248h54l60 105 60-105h54" id="aw"/><path fill="#333" d="M185-48c-13 30-37 53-82 52C43 2 14-33 14-96s30-98 90-98c62 0 83 45 84 108H66c0 31 8 55 39 56 18 0 30-7 34-22zm-45-69c5-46-57-63-70-21-2 6-4 13-4 21h74" id="ax"/><path fill="#333" d="M137-138c1-29-70-34-71-4 15 46 118 7 119 86 1 83-164 76-172 9l43-7c4 19 20 25 44 25 33 8 57-30 24-41C81-84 22-81 20-136c-2-80 154-74 161-7" id="ay"/><g id="C"><use transform="matrix(0.04320987654320988,0,0,0.04320987654320988,0,0)" xlink:href="#aw"/><use transform="matrix(0.04320987654320988,0,0,0.04320987654320988,9.506172839506174,0)" xlink:href="#ax"/><use transform="matrix(0.04320987654320988,0,0,0.04320987654320988,18.148148148148152,0)" xlink:href="#ay"/></g><g id="D"><use transform="matrix(0.04320987654320987,0,0,0.04320987654320987,0,0)" xlink:href="#ag"/><use transform="matrix(0.04320987654320987,0,0,0.04320987654320987,8.641975308641973,0)" xlink:href="#al"/><use transform="matrix(0.04320987654320987,0,0,0.04320987654320987,17.283950617283946,0)" xlink:href="#ae"/><use transform="matrix(0.04320987654320987,0,0,0.04320987654320987,30.2037037037037,0)" xlink:href="#Y"/><use transform="matrix(0.04320987654320987,0,0,0.04320987654320987,33.61728395061728,0)" xlink:href="#ar"/><use transform="matrix(0.04320987654320987,0,0,0.04320987654320987,42.25925925925925,0)" xlink:href="#Y"/><use transform="matrix(0.04320987654320987,0,0,0.04320987654320987,45.67283950617284,0)" xlink:href="#as"/><use transform="matrix(0.04320987654320987,0,0,0.04320987654320987,49.99382716049383,0)" xlink:href="#an"/><use transform="matrix(0.04320987654320987,0,0,0.04320987654320987,57.7716049382716,0)" xlink:href="#Y"/><use transform="matrix(0.04320987654320987,0,0,0.04320987654320987,61.18518518518518,0)" xlink:href="#Z"/><use transform="matrix(0.04320987654320987,0,0,0.04320987654320987,69.82716049382715,0)" xlink:href="#X"/></g><g id="E"><use transform="matrix(0.04320987654320987,0,0,0.04320987654320987,0,0)" xlink:href="#ai"/><use transform="matrix(0.04320987654320987,0,0,0.04320987654320987,8.641975308641973,0)" xlink:href="#aj"/></g><g id="F"><use transform="matrix(0.04320987654320987,0,0,0.04320987654320987,0,0)" xlink:href="#ar"/><use transform="matrix(0.04320987654320987,0,0,0.04320987654320987,8.641975308641973,0)" xlink:href="#W"/><use transform="matrix(0.04320987654320987,0,0,0.04320987654320987,17.283950617283946,0)" xlink:href="#ag"/><use transform="matrix(0.04320987654320987,0,0,0.04320987654320987,25.925925925925917,0)" xlink:href="#al"/><use transform="matrix(0.04320987654320987,0,0,0.04320987654320987,34.56790123456789,0)" xlink:href="#ae"/><use transform="matrix(0.04320987654320987,0,0,0.04320987654320987,47.487654320987644,0)" xlink:href="#Y"/><use transform="matrix(0.04320987654320987,0,0,0.04320987654320987,50.90123456790123,0)" xlink:href="#ar"/><use transform="matrix(0.04320987654320987,0,0,0.04320987654320987,59.543209876543195,0)" xlink:href="#Y"/><use transform="matrix(0.04320987654320987,0,0,0.04320987654320987,62.956790123456784,0)" xlink:href="#as"/><use transform="matrix(0.04320987654320987,0,0,0.04320987654320987,67.27777777777777,0)" xlink:href="#an"/><use transform="matrix(0.04320987654320987,0,0,0.04320987654320987,75.05555555555554,0)" xlink:href="#Y"/><use transform="matrix(0.04320987654320987,0,0,0.04320987654320987,78.46913580246913,0)" xlink:href="#Z"/><use transform="matrix(0.04320987654320987,0,0,0.04320987654320987,87.1111111111111,0)" xlink:href="#X"/></g><path fill="#333" d="M212-179c-10-28-35-45-73-45-59 0-87 40-87 99 0 60 29 101 89 101 43 0 62-24 78-52l27 14C228-24 195 4 139 4 59 4 22-46 18-125c-6-104 99-153 187-111 19 9 31 26 39 46" id="az"/><path fill="#333" d="M115-194c53 0 69 39 70 98 0 66-23 100-70 100C84 3 66-7 56-30L54 0H23l1-261h32v101c10-23 28-34 59-34zm-8 174c40 0 45-34 45-75 0-40-5-75-45-74-42 0-51 32-51 76 0 43 10 73 51 73" id="aA"/><g id="G"><use transform="matrix(0.04320987654320987,0,0,0.04320987654320987,0,0)" xlink:href="#az"/><use transform="matrix(0.04320987654320987,0,0,0.04320987654320987,11.191358024691356,0)" xlink:href="#ab"/><use transform="matrix(0.04320987654320987,0,0,0.04320987654320987,19.83333333333333,0)" xlink:href="#aj"/><use transform="matrix(0.04320987654320987,0,0,0.04320987654320987,24.975308641975303,0)" xlink:href="#aA"/><use transform="matrix(0.04320987654320987,0,0,0.04320987654320987,33.61728395061728,0)" xlink:href="#ai"/><use transform="matrix(0.04320987654320987,0,0,0.04320987654320987,42.25925925925925,0)" xlink:href="#Z"/></g><path fill="#333" d="M141 0L90-78 38 0H4l68-98-65-92h35l48 74 47-74h35l-64 92 68 98h-35" id="aB"/><g id="H"><use transform="matrix(0.04320987654320987,0,0,0.04320987654320987,0,0)" xlink:href="#ar"/><use transform="matrix(0.04320987654320987,0,0,0.04320987654320987,8.641975308641973,0)" xlink:href="#Y"/><use transform="matrix(0.04320987654320987,0,0,0.04320987654320987,12.055555555555554,0)" xlink:href="#ai"/><use transform="matrix(0.04320987654320987,0,0,0.04320987654320987,20.697530864197525,0)" xlink:href="#aB"/><use transform="matrix(0.04320987654320987,0,0,0.04320987654320987,28.475308641975296,0)" xlink:href="#Y"/><use transform="matrix(0.04320987654320987,0,0,0.04320987654320987,31.88888888888888,0)" xlink:href="#ar"/><use transform="matrix(0.04320987654320987,0,0,0.04320987654320987,40.53086419753085,0)" xlink:href="#W"/></g><path fill="#333" d="M18-27v-27l151-64-151-65v-27l175 74v36" id="aC"/><use transform="matrix(0.04320987654320987,0,0,0.04320987654320987,0,0)" xlink:href="#aC" id="I"/><g id="J"><use transform="matrix(0.04320987654320987,0,0,0.04320987654320987,0,0)" xlink:href="#al"/><use transform="matrix(0.04320987654320987,0,0,0.04320987654320987,8.641975308641973,0)" xlink:href="#ad"/><use transform="matrix(0.04320987654320987,0,0,0.04320987654320987,16.41975308641975,0)" xlink:href="#W"/><use transform="matrix(0.04320987654320987,0,0,0.04320987654320987,25.061728395061724,0)" xlink:href="#aj"/></g><g id="K"><use transform="matrix(0.04320987654320987,0,0,0.04320987654320987,0,0)" xlink:href="#af"/><use transform="matrix(0.04320987654320987,0,0,0.04320987654320987,3.4135802469135794,0)" xlink:href="#W"/><use transform="matrix(0.04320987654320987,0,0,0.04320987654320987,12.055555555555554,0)" xlink:href="#ao"/><use transform="matrix(0.04320987654320987,0,0,0.04320987654320987,19.83333333333333,0)" xlink:href="#W"/><use transform="matrix(0.04320987654320987,0,0,0.04320987654320987,28.475308641975303,0)" xlink:href="#af"/><use transform="matrix(0.04320987654320987,0,0,0.04320987654320987,31.888888888888882,0)" xlink:href="#at"/></g><g id="L"><use transform="matrix(0.04320987654320987,0,0,0.04320987654320987,0,0)" xlink:href="#as"/><use transform="matrix(0.04320987654320987,0,0,0.04320987654320987,4.320987654320986,0)" xlink:href="#ab"/><use transform="matrix(0.04320987654320987,0,0,0.04320987654320987,12.962962962962958,0)" xlink:href="#Z"/></g><path fill="#333" d="M30 0v-248h33v221h125V0H30" id="aD"/><path fill="#333" d="M0 4l72-265h28L28 4H0" id="aE"/><path fill="#333" d="M47-170H22l-4-78h33" id="aF"/><g id="M"><use transform="matrix(0.04320987654320987,0,0,0.04320987654320987,0,0)" xlink:href="#aD"/><use transform="matrix(0.04320987654320987,0,0,0.04320987654320987,8.641975308641973,0)" xlink:href="#Y"/><use transform="matrix(0.04320987654320987,0,0,0.04320987654320987,12.055555555555554,0)" xlink:href="#X"/><use transform="matrix(0.04320987654320987,0,0,0.04320987654320987,20.697530864197525,0)" xlink:href="#ag"/><use transform="matrix(0.04320987654320987,0,0,0.04320987654320987,29.3395061728395,0)" xlink:href="#ac"/><use transform="matrix(0.04320987654320987,0,0,0.04320987654320987,33.66049382716049,0)" xlink:href="#aE"/><use transform="matrix(0.04320987654320987,0,0,0.04320987654320987,37.981481481481474,0)" xlink:href="#aF"/><use transform="matrix(0.04320987654320987,0,0,0.04320987654320987,40.919753086419746,0)" xlink:href="#af"/><use transform="matrix(0.04320987654320987,0,0,0.04320987654320987,44.33333333333332,0)" xlink:href="#Y"/><use transform="matrix(0.04320987654320987,0,0,0.04320987654320987,47.74691358024691,0)" xlink:href="#X"/><use transform="matrix(0.04320987654320987,0,0,0.04320987654320987,56.388888888888886,0)" xlink:href="#ag"/><use transform="matrix(0.04320987654320987,0,0,0.04320987654320987,65.03086419753086,0)" xlink:href="#ac"/></g><g id="N"><use transform="matrix(0.04320987654320987,0,0,0.04320987654320987,0,0)" xlink:href="#ai"/><use transform="matrix(0.04320987654320987,0,0,0.04320987654320987,8.641975308641973,0)" xlink:href="#as"/><use transform="matrix(0.04320987654320987,0,0,0.04320987654320987,12.660493827160492,0)" xlink:href="#as"/><use transform="matrix(0.04320987654320987,0,0,0.04320987654320987,16.981481481481477,0)" xlink:href="#aF"/></g><g id="O"><use transform="matrix(0.04320987654320987,0,0,0.04320987654320987,0,0)" xlink:href="#ac"/><use transform="matrix(0.04320987654320987,0,0,0.04320987654320987,4.320987654320986,0)" xlink:href="#Y"/><use transform="matrix(0.04320987654320987,0,0,0.04320987654320987,7.734567901234566,0)" xlink:href="#ae"/><use transform="matrix(0.04320987654320987,0,0,0.04320987654320987,20.654320987654316,0)" xlink:href="#W"/><use transform="matrix(0.04320987654320987,0,0,0.04320987654320987,29.29629629629629,0)" xlink:href="#aj"/></g><g id="P"><use transform="matrix(0.04320987654320987,0,0,0.04320987654320987,0,0)" xlink:href="#as"/><use transform="matrix(0.04320987654320987,0,0,0.04320987654320987,4.320987654320986,0)" xlink:href="#Y"/><use transform="matrix(0.04320987654320987,0,0,0.04320987654320987,7.734567901234566,0)" xlink:href="#Z"/><use transform="matrix(0.04320987654320987,0,0,0.04320987654320987,16.376543209876537,0)" xlink:href="#Y"/><use transform="matrix(0.04320987654320987,0,0,0.04320987654320987,19.790123456790116,0)" xlink:href="#ad"/><use transform="matrix(0.04320987654320987,0,0,0.04320987654320987,27.56790123456789,0)" xlink:href="#ag"/><use transform="matrix(0.04320987654320987,0,0,0.04320987654320987,36.209876543209866,0)" xlink:href="#W"/><use transform="matrix(0.04320987654320987,0,0,0.04320987654320987,44.85185185185184,0)" xlink:href="#ar"/><use transform="matrix(0.04320987654320987,0,0,0.04320987654320987,53.493827160493815,0)" xlink:href="#at"/></g><g id="Q"><use transform="matrix(0.04320987654320987,0,0,0.04320987654320987,0,0)" xlink:href="#aq"/><use transform="matrix(0.04320987654320987,0,0,0.04320987654320987,7.734567901234565,0)" xlink:href="#ai"/><use transform="matrix(0.04320987654320987,0,0,0.04320987654320987,16.376543209876537,0)" xlink:href="#X"/><use transform="matrix(0.04320987654320987,0,0,0.04320987654320987,25.018518518518512,0)" xlink:href="#X"/><use transform="matrix(0.04320987654320987,0,0,0.04320987654320987,33.66049382716049,0)" xlink:href="#af"/><use transform="matrix(0.04320987654320987,0,0,0.04320987654320987,37.07407407407407,0)" xlink:href="#W"/></g><g id="R"><use transform="matrix(0.04320987654320987,0,0,0.04320987654320987,0,0)" xlink:href="#af"/><use transform="matrix(0.04320987654320987,0,0,0.04320987654320987,3.4135802469135794,0)" xlink:href="#Y"/><use transform="matrix(0.04320987654320987,0,0,0.04320987654320987,6.827160493827159,0)" xlink:href="#X"/><use transform="matrix(0.04320987654320987,0,0,0.04320987654320987,15.469135802469133,0)" xlink:href="#ag"/><use transform="matrix(0.04320987654320987,0,0,0.04320987654320987,24.111111111111107,0)" xlink:href="#ac"/><use transform="matrix(0.04320987654320987,0,0,0.04320987654320987,28.43209876543209,0)" xlink:href="#ad"/></g><g id="S"><use transform="matrix(0.04320987654320987,0,0,0.04320987654320987,0,0)" xlink:href="#ab"/><use transform="matrix(0.04320987654320987,0,0,0.04320987654320987,8.641975308641973,0)" xlink:href="#ak"/><use transform="matrix(0.04320987654320987,0,0,0.04320987654320987,17.283950617283946,0)" xlink:href="#ak"/><use transform="matrix(0.04320987654320987,0,0,0.04320987654320987,25.925925925925917,0)" xlink:href="#aj"/><use transform="matrix(0.04320987654320987,0,0,0.04320987654320987,31.06790123456789,0)" xlink:href="#ai"/><use transform="matrix(0.04320987654320987,0,0,0.04320987654320987,39.709876543209866,0)" xlink:href="#ak"/><use transform="matrix(0.04320987654320987,0,0,0.04320987654320987,48.35185185185184,0)" xlink:href="#aj"/><use transform="matrix(0.04320987654320987,0,0,0.04320987654320987,53.493827160493815,0)" xlink:href="#Y"/><use transform="matrix(0.04320987654320987,0,0,0.04320987654320987,56.9074074074074,0)" xlink:href="#ab"/><use transform="matrix(0.04320987654320987,0,0,0.04320987654320987,65.54938271604937,0)" xlink:href="#ac"/><use transform="matrix(0.04320987654320987,0,0,0.04320987654320987,69.87037037037035,0)" xlink:href="#W"/></g><path fill="#333" d="M175 0L67-191c6 58 2 128 3 191H24v-248h59L193-55c-6-58-2-129-3-193h46V0h-61" id="aG"/><path fill="#333" d="M110-194c64 0 96 36 96 99 0 64-35 99-97 99-61 0-95-36-95-99 0-62 34-99 96-99zm-1 164c35 0 45-28 45-65 0-40-10-65-43-65-34 0-45 26-45 65 0 36 10 65 43 65" id="aH"/><g id="T"><use transform="matrix(0.04320987654320988,0,0,0.04320987654320988,0,0)" xlink:href="#aG"/><use transform="matrix(0.04320987654320988,0,0,0.04320987654320988,11.19135802469136,0)" xlink:href="#aH"/></g><g id="U"><use transform="matrix(0.04938271604938272,0,0,0.04938271604938272,0,0)" xlink:href="#aG"/><use transform="matrix(0.04938271604938272,0,0,0.04938271604938272,12.790123456790125,0)" xlink:href="#aH"/></g></defs></g></svg>